<?xml version="1.0" encoding="utf-8"?>
<!-- Generator: Adobe Illustrator 27.4.0, SVG Export Plug-In . SVG Version: 6.00 Build 0)  -->
<svg version="1.1" id="Calque_1" xmlns:svgjs="http://svgjs.com/svgjs"
	 xmlns="http://www.w3.org/2000/svg" xmlns:xlink="http://www.w3.org/1999/xlink" x="0px" y="0px" viewBox="0 0 1163.9 210.3"
	 style="enable-background:new 0 0 1163.9 210.3;" xml:space="preserve">
<style type="text/css">
	.st0{fill:#2A477F;}
</style>
<g>
	<path class="st0" d="M381.6,68.8c-2.1-0.8-4.2-1.7-6.4-2.7v0.4C321.2,45.5,298-0.1,223.7,0C123.6,0.1,97.1,110.3,0,66.1v144.2
		h375.3h41.1V76C403.4,74.8,391.9,72.3,381.6,68.8z"/>
	<path class="st0" d="M1129.2,68.8c-2.1-0.8-4.2-1.7-6.4-2.7v0.4c-54.1-21-77.2-66.6-151.6-66.5C871.2,0.1,844.7,110.3,747.5,66.1
		v144.2h375.3h41.1V76C1150.9,74.8,1139.5,72.3,1129.2,68.8z"/>
	<path class="st0" d="M754.6,68.8c-2.1-0.8-4.2-1.7-6.4-2.7v0.4C694.1,45.5,671-0.1,596.6,0C496.5,0.1,470.1,110.3,372.9,66.1v144.2
		h375.3h41.1V76C776.3,74.8,764.9,72.3,754.6,68.8z"/>
</g>
</svg>
