<?xml version="1.0" encoding="utf-8"?>
<!-- Generator: Adobe Illustrator 27.4.0, SVG Export Plug-In . SVG Version: 6.00 Build 0)  -->
<svg version="1.1" id="Calque_1" xmlns="http://www.w3.org/2000/svg" xmlns:xlink="http://www.w3.org/1999/xlink" x="0px" y="0px"
	 viewBox="0 0 2879.3 444.8" style="enable-background:new 0 0 2879.3 444.8;" xml:space="preserve">
<style type="text/css">
	.st0{fill:#FFFFFF;}
</style>
<path class="st0" d="M235,0c4.2,2.6,9.1,2.6,13.7,3.5c9.4,1.9,16.4,7.9,23.4,14c9.3,8.1,16,17.9,18.6,29.7c2.2,10.2,5.8,19.9,8,30
	c2.6,11.9-2.8,25.1-18.1,28.7c-3.7,0.8-6.9,2.8-10.7,3.2c-10.2,1.3-17.8-3-21.3-12.9c-3.5-9.8-7.8-19.2-14.9-27.2
	c-2.4-2.7-5.4-3.9-8.6-5.3c-4.2-1.8-6,1.5-9,2.7c-7.2,2.7-13.9,6.2-20.7,9.7c-5,2.5-10.4,4.5-14.5,8.6c-0.6,0.6-1.3,1.1-2.1,1.3
	c-8.2,1.8-14.1,7.8-20.2,12.7c-8,6.3-15.2,13.8-22.9,20.3c-8.9,7.6-15.8,17.1-24.4,25c-4.4,4.1-8.8,8.7-13,13.3
	c-0.9,0.9-0.6,1.6-0.3,2.6c0.2,0.9,0.4,2.5-0.5,2.7c-6.9,1.5-6.5,9.5-11.4,12.8c-5.3,3.5-9,9.1-11.5,14.3c-5,10.3-13.7,18.2-18,28.9
	c-1.7,4.1-5,7.8-6.3,12.2c-2.4,8.3-4.8,16.3-1.7,25.5c1.4,4.1,1.8,8.9,3.6,13.2c4.9,11.2,16.1,11.9,25.5,15.3
	c7.3,2.6,14.8,4.5,22.1,7.4c4.1,1.6,8.6,0,12.6,1.7c0.6,0.2,1.4,0,1.9,0.3c13.3,6.9,28.1,4.5,42.2,6.7c3.6,0.5,7.2,0.9,10.7,1.7
	c2.8,0.6,5.7,0.9,8.4,0.1c11.3-3.2,22.9-4.2,34.5-5.7c5-0.7,9.1-3.6,13.6-5.6c9.8-4.2,19.8-7.9,27.5-16c5-5.3,6.6-15.1,5.8-20.9
	c-0.3-2.2-2.5-2.3-4.3-2.5c-4.7-0.5-9.4,0.4-13.7,1.3c-12.8,2.7-25.6,4.7-38.4,6.9c-17.8,3-35.5,6.2-53.1,9.7
	c-14.7,3-20.9,0-28.1-13.4c-2.8-5.2-4.3-11.2-8.4-15.6c-1.2-1.3-0.8-3.2-0.6-4.8c1-7.3,2.2-14.5,3.9-21.7c1.5-6.2,4.4-11.7,6.6-17.5
	c1.2-3,10.7-6.9,13.9-7.1c5.9-0.3,11.8-1.1,17.6-2.5c5.5-1.3,11.1-2,16.7-3c0.8-0.1,2.1,0.2,2.4-0.3c2.7-4.3,7.4-2.4,10.9-3.2
	c11-2.4,22.4-3,33.1-6c5.5-1.5,11.6,0.4,16.6-3.3c8.9,3.1,17.4-0.6,26-1.7c8.8-1.1,17.4-4.6,26.2-5.6c6.5-0.8,13.2-1.4,19.9-1.6
	c7.6-0.2,14.1,3.1,21.2,3.6c8.9,0.7,13.1,7.2,15,14.7c0.9,3.5,3.6,5.1,4.9,8c2.5,5.6,3.4,11.6,5,17.5c1,3.6,3,7.1,3.8,10.5
	c2.2,9,4.1,18.6-1.7,27.2c-6.2,9.3-10.7,19.4-14.6,29.7c-4,10.4-6.2,21.4-9,32.2c-1.8,7.2-3.4,14.5-4.8,21.7
	c-1.9,9.7-6.7,19.1-4.9,29.4c0.5,2.9-0.5,5.7-1.2,8.3c-3,12,2.9,23.7,1.1,35.5c-1.5,9.8-0.9,20.2-6.6,29.1c-0.8,1.3-1.4,2.6-2.8,3.3
	c-7.7,3.9-15.4,7.7-23.5,10.8c-5.9,2.3-10-1.5-14.2-3.8c-3.1-1.7-6.2-3.4-9.5-4c-4-0.7-6.9-2.9-10.2-4.6c-4.3-2.3-5.9-5.4-6.3-10.6
	c-0.4-5.7-2.5-11.3-1.6-17.1c1.9-12.6-0.3-25.2,1.1-37.8c0.5-4.8,1.3-9.3,0.1-14.2c-1.5-5.9-3.7-7.9-9.2-5.6
	c-17.9,7.3-36.9,10.2-55.4,14.9c-11.1,2.8-22.2,0.7-33.3,0.2c-3.4-0.2-6.4,0.6-9.7,0.6c-17.2-0.1-34.2-1.7-50.8-7
	c-17.2-5.5-34.8-9.8-50.3-19.6c-15.7-10-27.4-22.6-31.7-41.7c-2.6-11.5-4-22.9-3.9-34.6c0-1.4,0.7-3-0.9-4.1v-43
	c1.4-2.9,2.8-5.7,3.2-9c1.5-15.6,7.6-29.2,17-41.8c10.9-14.4,24.1-27,33.5-42.5c5.7-9.4,13.2-16.9,21.7-23.4
	c6-4.6,11.2-9.8,16.2-15.4c3-3.3,6.1-6.7,10.3-8.5c4.2-1.7,7.9-4.1,11.3-7.1c6.3-5.7,12.2-11.9,19.2-16.6
	c8.7-5.9,16.2-13.1,23.9-19.8c12.7-11.2,26.9-19,42.1-25.5c2.5-1,5.8,0.8,7.5-2.4L235,0L235,0z"/>
<path class="st0" d="M1736.3,168.8c-1.6,3.1-3.5,4.1-5.4,4.9c-14.5,6-25.5,17.1-37.6,26.5c-8.9,7-17.9,14.2-29.8,15.6
	c-1.1,0.1-2.6,0.2-3.3,0.9c-5.4,5.6-12.2,8.1-19.5,9.8c-9.4,2.1-17.6,7.6-27,9.9c-2.9,0.7-5.8,1.4-8.7,2.1
	c-8.1,1.9-12.6,7.8-13,16.4c-0.2,5-0.6,10.1-2.5,14.9c-2.4,6.1-1.4,12.7-2.2,19.1c-0.8,6.5-2.3,12.9-3.6,19.3
	c-1.4,7,0.2,14.4-1.6,21.4c-1.9,7.7-0.6,15.4-0.9,23c-0.4,10.2-3.1,20.1-3.3,30.4c-0.1,3.1-3,5.1-5.5,6.7
	c-10.1,6.3-21.1,10.1-32.6,4.9c-7.2-3.2-13.4-8.5-20.1-12.8c-1.1-0.7-1.5-1.7-2-2.8c-5.3-12.3-8-24.8-6.1-38.4
	c1.1-7.8,0.8-15.9,1.6-23.8c1.1-11.8,0-23.7,2.6-35.5c1.2-5.2,0.7-11,1.2-16.5c0.2-2.3-0.6-3.7-2.8-4.6c-9.9-4-17.3-10.7-23.9-19.2
	c-4.7-6-9-11.4-10.6-19c-1.1-5.3-1.2-10.4,0.2-15.6c1.8-6.4,2.6-12.9,3-19.5c0.7-12.3,8.7-20.5,21-21c15.8-0.6,25.2-10.8,25.1-26.5
	c-0.1-7.9-0.7-15.9,0.8-23.8c0.9-4.7-2.2-8.5-6.9-9.8c-4-1.1-7.9-1.4-11.8,0c-4.8,1.7-9.9,0.5-14.7,1.4c-7.1,1.3-13.4,4.8-19.4,8.5
	c-9.2,5.7-18.7,6.8-29.3,5.4c-8.1-1.1-14.6-3.8-19.8-10c-1.9-2.2-4.7-1.6-7-0.8s-3.8,2.9-3.8,5.4c0,3.4-0.6,6.6-1.7,9.7
	c-0.5,1.6-0.3,3.1,0.5,4.3c5.1,7.6,3.8,16.3,3.6,24.4c-0.2,8.1-0.2,16.3-0.6,24.4c-0.5,8.9-0.2,17.8,0,26.6
	c0.2,6.8-2.1,13.3-2.1,20.2c0,17.9-2,35.8-3.7,53.6c-1,9.6-2.1,19.3,1.6,28.9c1.9,5,0,10.7,1.2,16.2c2.9,14.2,0.3,28.3-2.2,42.2
	c-1.2,6.8-4.4,13.4-7.2,19.9c-2.6,6.1-8.2,8.9-14.3,9.2c-9.9,0.5-20,0.2-29.9-0.1c-4.5-0.1-7.3-3.5-10.6-6.2
	c-9.4-7.8-12.6-18.8-16.8-29.5c-2.9-7.4-0.9-15.1-2.6-22.5c-2.5-11-6.9-21.1-12.5-30.8c-5.5-9.5-11-18.9-17.7-27.5
	c-4.3-5.5-7.6-11.5-11.8-17.1c-1.9-2.6-3.1-5.6-4.2-8.4c-3.2-8-8.7-14.2-13.9-20.7c-4.4-5.5-9.9-6.2-14.9-1.8
	c-1.3,1.1-2,2.3-2.1,4.2c-0.8,9.6-2.6,18.9-6.1,27.9c-2,5.3-0.2,11.8-3.9,16.3c-4.7,5.9-3.3,12.5-3.2,18.7
	c0.3,12.7-1.9,25.2-1.3,37.8c0.1,2.1-0.9,3.8-1.6,5.6c-2.8,7.2-2.4,15.1-5.4,22.3c-3.8,9.1-6.5,11.2-16.2,10.2
	c-8.8-0.9-17.8-0.8-26.5-2.2c-8.7-1.4-17.7-3.8-20.2-13.8c-1.8-7.1-4-13.9-3.3-21.9c0.6-7,0.7-14.5,0.7-21.7
	c0.1-10.1,1.5-20.1,3.6-30.2c2.8-13.5,4.6-27.3,7.4-40.9c2.5-12.2,6.7-24.1,8.1-36.4c1.8-15.7,7.4-30.6,7.2-46.8
	c-0.1-11.3,0.6-22.8,1.3-34.1c0.6-9.3-0.1-19-4.2-28c-2.2-5-2.3-10.2-0.2-15.4c0.3-0.8,0.7-1.6,0.6-2.4c-0.7-9.1,1.7-18,2-27.1
	c0.5-13.8,9.7-26,24-30.8c11.9-4,23.3-2.2,34.1,3.9c2.7,1.5,5.4,3.1,8.5,4c8.5,2.6,12.4,8.9,12.8,17.3c0.7,12.9,1,25.9,1.6,38.8
	c0.4,9.6,0.8,18.9,3.1,28.5c2.8,11.8,8.7,21.4,15.4,30.7c8.7,12.2,17.1,24.7,27.6,35.5c6.2,6.4,11,14,16.4,21.1
	c1.7,2.2,3.2,5.1,6.5,4.8c3.5-0.4,4.3-3.4,5.4-6.4c1.2-3.4,1.7-6.7,1.7-10.2c0.1-8.6,1.9-16.9,3-25.4c0.3-2.4-0.8-4.9-0.9-7.4
	c-0.2-7.4,0.4-14.9,1.2-22.3c0.8-7.5,0-15.1,1.5-22.6c1.4-7,1.3-14.3,3.2-21.3c1.1-3.9,1.4-7.7,1.2-11.9c-0.5-9.5,0.8-19.1,1.3-28.7
	c0.2-2.8-0.2-5.8,0.7-8.4c3.5-10,16.2-17.4,29-12.5c8.7,3.3,15,8.3,20.5,15.5c3.2,4.1,5.4,8.3,5.9,13.3c0.2,1.7,0.3,3.3,1.1,4.8
	c1.4,2.6,3,5.1,6.1,5.3c2.9,0.2,4.3-2.4,5.5-4.5c2.3-3.9,5-7.4,7.5-11.2c2.7-4.1,6.4-5.4,10.7-6.1c3.7-0.6,7.4-1.5,11-2.3
	c1.1-0.3,2.6-0.7,3-1.6c4.3-8.2,12.3-8.6,20-10c5-1,10.1-1.7,14.6-4.4c2.6-1.6,5.3,0,8-0.4c12.3-1.4,24.6-2.9,37-3.5
	c17.9-0.8,35.9-0.2,53.8,0.4c18.9,0.6,37.7,2.4,56.5,5.5c11.2,1.8,22.7,2.1,33.5,5.4c13.5,4.1,28.2,6.7,36.4,20.4
	c6.2,10.3,12.8,20.3,16.9,31.8c3.5,9.8,4.5,19.9,6.3,29.9c0.7,4,0.5,8.2-0.4,12.3c-1.5,6.9-2.2,13.9-3.3,20.9
	c-0.3,2.1,0.2,4,2.2,5.1c1.9,1.1,3.2-1,4.2-1.7c5.4-4.2,9-10,12.8-15.7c9.2-13.6,13.2-29.4,19.8-44.2c4.8-10.7,9.7-21.5,16.2-31.4
	c3-4.5,8.5-5.5,13.6-6.7c10.3-2.3,20.9-3,31.3-4.6c16.5-2.7,32.3-8.6,48.5-12.6c23.1-5.7,46-11.9,69.1-17.2c8.5-2,16.7-5.3,25.6-5.9
	c5.1-0.3,9.4,0.3,14,2.5c12.3,5.8,16.7,16.7,19.5,28.6c0.7,2.9,1.6,5.7,2.9,8.3c6.5,12.8,4.8,26.5,3.9,40c-0.3,4.8-4.3,7.3-8.1,9.5
	c-9.4,5.4-19.8,6.8-30.3,8.4c-9.4,1.4-18.6,3.9-28,5.2c-8,1.2-15.8,3.3-23.7,4.5c-9.5,1.5-18.6,4.4-28,5.7
	c-10.6,1.4-20.5,6.5-30.9,7.9c-8.8,1.2-16.9,4.3-25.5,5.6c-11.3,1.7-20.4,6.9-25.4,18.1c-1.9,4.2-4.8,7.9-7.8,11.5
	c-2.3,2.8-4.4,5.8-4.8,9.6c-0.2,2.1,0.5,3.2,2.5,4.6c13.1,9.5,27.1,3.1,40.7,2.9c8-0.1,15.9-1.8,23.9-2.8c9.7-1.2,18.8-4.4,27.8-8.1
	c9-3.8,17.5-8.2,25.7-13.4c3.8-2.4,15.3,3.4,18.2,8.7c6.3,11.4,10.3,23.8,13.9,36.1c3.3,11.6,0.6,23.1-6.2,33
	c-3.6,5.3-9.8,7.8-15.9,9.6c-15.5,4.6-31.6,5.3-47.4,7.9c-13.3,2.2-26.7,3.3-40,5.1c-13.6,1.8-27,4.2-40.6,5.7
	c-6.9,0.8-13.8,1.1-20.7,2.3c-7.8,1.4-15,3.9-20.4,10.1c-3.3,3.8-3.7,7.9-0.6,11.7c9.1,11.3,19.8,19.9,35.4,20.3
	c12.7,0.4,24.5-2.7,36.1-7.4c13.2-5.2,26.4-10.5,39.7-15.2c11.2-4,19.1,1.3,24.4,12.5c7.5,15.9,6.8,32.1,5.6,48.8
	c-0.8,11.6-6.2,20.4-15.8,25.9c-7.1,4.1-14,8.9-22.2,11c-7.7,2-14.2,7.1-22.2,8.4c-11.3,1.9-22.5,2.8-34,1c-4.4-0.7-8.9-1-13.3-1.1
	c-12.7-0.4-24.6-4.1-36.6-7.4c-6.8-1.9-12.6-7.2-19.3-9.9c-8.6-3.5-15-10.1-21.1-16.3c-6.3-6.3-11.2-14.4-15.7-22.4
	c-4.4-7.8-6.9-15.9-7-24.9c-0.1-3.4-1.3-6.8-1.8-10.2c-2-14.6-0.4-28.9,2.1-43.3c1.5-8.7,3.5-17.2,6-25.6c2.6-8.9,4.2-18.4,7.7-26.7
	c4.4-10.6,8.7-21.4,13.1-32C1736.3,177.8,1737.7,174.1,1736.3,168.8L1736.3,168.8z M1603.4,95.5c0,0.1,0,0.3,0,0.4
	c-1.2,0-2.3,0-3.5,0c-10,0.2-12.3,3.1-10.1,12.8c0.1,0.5,0.2,1,0.2,1.5c-1.7,11.4,4.1,21.5,5.3,32.5c0.4,3.4,3.5,7.7,8.4,8.1
	c4.1,0.3,8.2,0,12.3-0.9c9.8-2,18.4-6.4,26.8-11.3c9-5.3,19.2-9.4,22.9-20.9c1.8-5.6,0.5-9-5.1-10.9c-9.7-3.3-19.2-6.9-29.6-7.8
	C1621.8,98.2,1612.6,96.7,1603.4,95.5L1603.4,95.5z"/>
<path class="st0" d="M2879,90.9c-0.3,8.7,1.1,17.3-0.2,26c-3.2,8.9-9.9,11.1-22.2,8.7c-15.5-3.1-31.1-3.4-46.9-1.9
	c-5.9,0.6-11.9,1-17.9,1.3c-16.2,0.7-32.3,1.8-48.5,2.9c-12.3,0.8-24.7,1.5-36.9,3.2c-11.9,1.7-24,1.7-35.8,3.1
	c-8.6,1.1-17.3,2-25.7,4.3c-3.9,1.1-7.9,0.7-11.8,1.1c-11.9,1.2-19,8.5-25,17.5c-3.2,4.8-5.8,10.1-8.4,15.3
	c-3.5,7,0.9,13.2,8.7,13.6c13.1,0.6,26.1,1.5,39.2,2.8c6.9,0.7,13.6-0.7,20.4-1.1c8.2-0.4,16.4-1.6,24.5-3.8c3.8-1,6-4.6,10.8-4.3
	c9.5,0.7,16.9,5,22.3,12.1c5.2,6.9,9.1,14.7,13.4,22.2c5.8,9.8,4.8,20.6,4.5,31.4c-0.2,8.1-3.5,14.4-9.3,20
	c-2.8,2.7-4.1,6.8-7.3,9.7c-3.1,2.8-6.3,3.9-9.9,4.7c-5,1.1-9.7,2.9-14.1,5.7c-3.5,2.1-3.9,4.9-1.8,8c3.1,4.6,6.7,8.7,11.1,12
	c3.3,2.4,5,5.1,4.7,9.2c-0.7,11-0.9,22.1-2.4,33.1c-0.8,6.3-3.2,12.5-6.8,18c-1,1.6-2.5,2.5-4.2,3.4c-10.3,4.9-20.7,9.7-31.9,12.3
	c-4.8,1.1-9.8,2-14.6,2.2c-7,0.3-13.6,2.5-20.6,2.5c-8.4,0-16.9,2.4-25.4,2.6c-10.2,0.3-20.6,1-30.7-1.9c-11-3.2-22.7-4.8-32.4-11.2
	c-6.9-4.5-13.7-9.5-20-14.9c-5.4-4.6-9.4-10.6-15.2-14.7c-3.9-2.8-5.4-7.8-9.2-11c-3.2-2.7-5.1-2.2-7.3,0.9
	c-3.9,5.5-5.4,12-8.6,17.8c-6,10.8-12.6,21.1-21.5,30.2c-9.9,10.1-21.7,12-34.1,12.9c-13.7,1-27.3-1.6-40.9-3.1
	c-6.5-0.7-12.3-5.2-19-6.4c-8.1-1.4-15.4-5-22.9-8.4c-7.3-3.2-14.8-5.8-21.9-9.6c-7.3-4-14.2-8.6-21.1-13c-10.3-6.5-20.8-13-29.9-21
	c-8.4-7.3-17.9-13.2-25.7-21.2c-8.8-9.2-16.1-19.7-23.1-30.3c-1.8-2.8-3.8-5.5-6.1-7.8c-2.4-2.5-5.3-1.5-6.6,1.7
	c-4.8,12.3-6.3,25.1-4,38c2.1,11.7,1.9,23.4,1.8,35c-0.1,10.9-1.8,21.5-6.4,31.6c-3.9,8.5-12.5,12.7-22,11.8c-6.7-0.6-13-1.6-19.4-4
	c-9.4-3.5-20.6-17.5-21.2-27.4c-0.9-14.9-1.9-29.8-0.8-44.8c0.4-5.5,1-10.9,0.8-16.3c-0.2-7.6-6.5-13.8-14.1-13.7
	c-9.5,0.1-19,0-28.5,0.5c-8.4,0.4-16.2,4.3-24.5,5.4c-3.5,0.5-7,1.6-10.5,2.1c-16.6,2.6-26.5,12.3-33.9,27.1
	c-5.8,11.7-9.2,24.5-15.8,35.8c-6.2,10.6-11.1,22.3-22.7,28.9c-3.2,1.8-5.3,2-8.4,0.2c-7.1-4-14.3-7.9-21.8-11
	c-8.9-3.7-11.4-11.3-13.7-19.3c-4.6-16.7,0.2-31.8,7.6-46.5c5.8-11.5,13.5-21.9,20.2-32.8c4.9-7.9,7.3-17,11.1-25.5
	c4.4-9.7,6.7-19.7,6.2-30.5c-0.3-6.9,5.7-10.4,10.2-14.4c2.3-2,5.3-3.3,7.6-5.3c4.3-3.7,7.4-8.2,9.4-13.8
	c3.6-9.9,9.5-18.8,14.3-28.2c6.2-12,12.9-23.8,18-36.3c2.8-6.8,7.5-12.7,11.2-19.1c6.6-11.3,13.7-22.3,21.5-32.8
	c9.9-13.2,20.9-25.6,34.4-35.4c2.4-1.8,4.2-4.2,6.5-6.1c4.2-3.5,8.4-4.7,13.8-3c4,1.3,8.4,1.6,12.6,2.2c6.7,0.9,11.8,4.6,15.4,9.9
	c6.8,10.2,15.7,19,21.2,30c3.3,6.6,7.8,12.5,10,19.8c1.2,3.9,1.1,7.9,1.4,11.8c1,14.1,6.8,26.9,9.1,40.6c1.6,9.5,4.8,18.8,5.3,28.5
	c0.1,2.1,1.1,3.8,1.9,5.5c2.2,4.2,5.8,4.3,7.8,0.1c5.4-11.2,11.9-21.7,18.6-32.1c3.2-5.1,8.6-8.1,12.1-12.9
	c6.6-9.1,16.3-14.1,25.4-20.3c9-6.1,18.2-11.7,27.4-17.3c8.8-5.3,18.3-9.5,28.2-12.4c18.2-5.4,35.9-12.2,54.7-15.6
	c15.1-2.7,30.1-5.1,45.4-5.9c8.9-0.5,16.6,0.9,23.1,6.2c7,5.6,13.9,11.7,18.3,19.9c2.2,4.2,6.2,7.2,8.1,11.7
	c3.9,9.1,8.2,18.1,8.8,28.1c0.4,7.1,0.6,14.3,0.1,21.5c-0.8,12-3.6,23.4-10,33.8c-3.9,6.3-7.8,12.7-12.3,18.6
	c-3.3,4.3-7,6.3-12.8,6.9c-9.8,1.1-18.9-2.9-28.4-2.3c-1,0.1-1.4-0.7-2.1-1.2c-3.9-2.8-7.8-5.6-12.3-7.3c-5.3-2.1-7.8-7.3-11.6-11
	c-1.6-1.6,0.3-4.1,0.7-6.1c1.5-7.1,0.6-14.2,0.8-21.3c0.1-4.3,1.1-8.4,2.8-12.3c2.4-5.7,1.5-11.1-1.9-15.9
	c-3.5-4.9-9.5-3.7-13.8-2.4c-5.6,1.7-11.4,3.1-17,5c-12.5,4.2-23.7,11-33.8,19.1c-12.1,9.8-23.2,20.7-32,33.8
	c-5.1,7.7-11.6,14.7-15.7,22.8c-4.4,8.5-8.5,17.3-8.4,27.8c0.1,7.1,3.2,10.3,8.2,13.8c12.4,8.8,24.1,18.9,37,26.9
	c10.9,6.8,22.1,13.3,34.7,17.4c15.7,5.1,31.7,7.5,47.8,5.6c11.5-1.4,23.4-3,33-11.5c3.5-3,7-6.7,11-8.8c12.7-6.7,13.9-4.1,22.5,4.9
	c4.3,4.5,8.9,4.9,11.3,0.1c1.3-2.6,2.7-5.3,2.6-8.4c-0.1-1.7,0.3-3.4,0-5c-1.8-13,1.5-25.3,5-37.5c2.9-10.2,6.3-20.3,9.7-30.4
	c2.6-7.4,6.2-14.5,8.4-22c3.3-11,9.7-20.4,14.6-30.5c3.4-7,3.2-14.3,1.9-21.6c-1.5-8.1,1.5-15.5,5-22.2c2.7-5.2,3.7-11.5,8.2-15.7
	c6.3-5.8,12.1-11.5,21.4-13.7c20.3-4.8,41-6.9,61.5-10.4c13.3-2.2,26.6-4.8,39.9-6.8c12.6-1.8,25-4.3,37.7-5.7
	c17.5-1.8,35.2-2.4,52.5-6.3c9.4-2.2,19.4-2.2,28.7-5.2c8.4-2.7,17.6-2.1,25.6-6.4c1.6-0.9,2.6-3.6,4.2-3c7.9,3.1,16.1-3.8,24.1,1.1
	c2.2,1.4,3.7,3.1,5.6,4.7c11.4,9.7,19,21.9,24.7,35.6C2878.3,79.5,2877.5,85.4,2879,90.9L2879,90.9z M2621.6,306.8
	c1.9-0.3,4.4-0.2,6.8-0.5c7.6-1,15.1-2.1,22.6-3.4c10.7-1.8,21.5-2.9,32.2-4.7c4-0.7,5-2.2,4.6-5.8c-0.4-3.5-2.3-4.8-5.8-4.6
	c-1.9,0.1-3.9,0.1-5.9-0.5c-12.1-3.6-24.5-4.2-37-4.5c-13.5-0.2-26.9,0.4-40.3,1.1c-7.2,0.4-14.1-2.8-21.4-1.2
	c-4.3,0.9-6.8,3.3-8.4,6.9c-1.4,3.4,1.3,5.5,3.6,6.8c10.3,6.2,20.6,12,33.4,11.5C2611.3,307.7,2616.1,306.4,2621.6,306.8
	L2621.6,306.8z M2127.2,192.9c5.7,0.8,9.2-2.4,12.5-6.5c4.7-5.9,2.9-13,4.2-19.5c2.5-12.3-1.8-24.5-2.4-36.8
	c-0.1-2.6-2.2-3.9-5.3-4.2c-4.5-0.5-4.9,2.8-6.4,5.5c-9.1,17.6-17.8,35.4-25.1,53.9c-1.8,4.4,1.1,9.2,5.8,9.7
	c2.8,0.3,5.6,0.3,8.4-0.7C2121.6,193.1,2124.3,192.4,2127.2,192.9L2127.2,192.9z"/>
<path class="st0" d="M625.7,302.6c-0.9-3.7-4.5-5.1-6.8-7.7c-4.8-5.4-9.5-11.5-15.5-15.2c-6.7-4.1-13.2-8.4-19.6-12.9
	c-2.5-1.7-5.7-1.2-7.7-3.2c-8.3-8.3-18.2-14.9-25.6-24c-2.5-3-4.5-6.7-1.6-9.9c3.5-3.9,5.9-8.8,10-12.2c8-6.7,12.3-16.3,17.5-25
	c3.3-5.5,6.4-11.3,7-17.9c0.7-8.6,3.2-16.8,6.3-24.5c3.3-8.3,2.9-16.5,2-24.6c-0.8-7.5-0.6-15-3.2-22.7c-3.3-9.4-8-18.6-8.8-28.9
	c0-0.3-0.9-0.4-1.2-0.8c-4.3-6.1-9.3-11.7-11.8-19c-0.8-2.5-2.3-5.3-4-7.6c-7.3-9.9-17.9-16.2-26.8-24.4c-0.4-0.3-0.8-0.5-1.2-0.8
	c-5.1-3.9-11.7-2.7-17.5-4.8c-4.6-1.6-10.1-1.8-15.1-3.6c-4.2-1.5-8.6-3.5-12.6-4.2c-7.9-1.5-16-4.6-23.1-2.7
	c-4.4,0-7.9-0.8-10.6,0.8c-5.8,3.5-12.6,3.3-18.9,4.9c-9,2.3-15.5,8-21.7,13.8c-7.3,6.8-10.5,17-12.6,25.9
	c-4.4,18.2-0.6,35.8,13.5,49.7c4.6,4.6,5.5,10.6,2,16.1c-1.5,2.4-2.1,5-3,7.6c-2.3,6.7-3.4,13.8-6.1,20.3
	c-2.2,5.3-4.1,10.5-5.1,16.1c-1.3,7.5-6.3,11.1-14,12.9c-2.9,0.7-6.4,0.4-8.7,2.2c-4.6,3.6-5.4,10.4-10.9,13.4
	c-0.4,0.2-0.2,1.3-0.4,1.9c-1.7,5.9,0.3,12.1-1.1,17.7c-3.1,12.2,2.3,22,8.7,31c4.7,6.6,8.4,12.5,5.5,20.7c-0.3,0.9-0.1,2-0.1,3
	c0.3,11.9-2.3,23.4-3.8,35.1c-0.3,2.2-2.3,3.5-1.6,6c1.2,4.6,1,9.4,0.2,13.9c-2,10.1-0.8,19.5,1.7,29.4
	c3.4,13.3,12.3,22.1,21.9,30.6c1.5,1.4,3.3,3,5.6,2.8c4.4-0.4,8.4,1.1,12.6,1.7c5.1,0.7,11.4,2.4,14.8-2.8
	c6.3-9.4,12.6-18.8,9.7-31.6c-2.6-11.4-0.9-23.3-3.9-34.9c-1.3-5-1.6-10.9-1-16.1c0.9-8.3,4.4-16.1,8.3-23.5c2.9-5.6,8-6.8,11.5-2.3
	c6.7,8.5,15.8,13.9,24.5,19.6c8.1,5.3,15.3,11.8,23.1,17.5c14.4,10.4,25.6,24.5,37.7,37.4c8.7,9.3,17.3,18.6,30.3,22
	c6.6,1.8,13,1.9,19.2-0.8c6.2-2.8,11.8-6.8,15.7-12.2c2.9-4,5.7-8.1,8.8-12c2.9-3.6,7.4-6.4,8.3-11
	C628.6,322.7,628.1,312.6,625.7,302.6L625.7,302.6z M509.8,144.6c-5.6,7.3-13.1,12.6-20.2,18.2c-3.1,2.5-6.8,2.5-10.5,2.1
	c-2.3-0.3-3-2.1-3.1-4.4c-0.4-5.2-0.2-10.5,1.2-15.2c4.7-15.1,5-30.5,4.7-46c-0.1-3.8,1-7.2,2.5-10.4c2.8-6.2,4.8-6.9,11.3-4.9
	c7,2.1,13.6,4.6,19.5,9.4c6.3,5.2,9.5,11.3,8.7,19.1C524.7,125.8,517.1,135.2,509.8,144.6L509.8,144.6z"/>
<path class="st0" d="M1002.4,297.8c5.4,1.2,12.3,0.8,17.7-0.6c11-2.7,23.3-2.3,32.3-12.5c7.4-8.4,16.6-5.6,23.6,2.9
	c7.3,8.9,10.5,19.6,15.7,29.4c2.7,5.1,2.8,11.7,2.2,17.5c-1,9-1.2,18.3-5.2,26.5c-2.9,5.8-6.9,11.3-14.2,12.9
	c-4.4,0.9-8.6,2.4-12.6,4.6c-5,2.8-10.9,2.1-16.4,3.1c-10.2,1.7-20.6,2.2-30.7,5c-2.6,0.7-5.4,0.1-8.2-0.9
	c-5.9-2.2-12.4-1.1-18.6-1.8c-4.3-0.5-8.1-1-12.2-3c-5.5-2.7-11.5-5-17.6-5.8c-7-0.9-13.6-3-20.2-4.7c-4.5-1.2-8.7-4.7-11-8.9
	c-3.9-7.1-8.8-13.6-11.9-21.2c-2.1-5-5-9.2-9.5-12.9c-4.7-3.8-8.1-9.2-9.9-15.7c-2.4-8.3-3.5-16.7-5.3-25c-1.1-4.9,0.5-9.5,0.8-14.2
	c0.6-13.2,5-25.8,6.2-39c0.4-4.4,2.3-9.1,3.5-13.6c2.1-8.1,4.5-16.3,5.1-24.5c0.7-9.1,3-17.6,6-26c4.2-12.1,10.9-23.1,16-34.8
	c6.7-15.1,13.9-30.4,12-47.6c-1.3-12,6.2-17.7,14.7-22.4c10.7-6,22.5-9.9,34.5-12.3c6.5-1.3,13.2-2.5,20-2.6
	c6.8-0.1,13.2-2.5,19.9-3.4c7.8-1.1,16-1.8,23.6-4.5c13-4.6,26.7-5.5,40-8.6c9.6-2.2,19.5-4,29.5-3.5c8.4,0.5,16.9,0.9,24.5,4.8
	c5.9,3.1,11.7,7.1,13.8,14.2c2.1,7.1,7.6,12,11.4,17.9c6.3,9.8,6.2,19.5,3,30c-1.5,5.1-4.9,7.2-10.1,8.2c-8.2,1.6-16.6-0.2-24.8,1.9
	c-8.8,2.2-18.1,2.4-26.8,5.4c-4.1,1.4-8.8,1.1-13.2,1.5c-18.7,1.7-37.6,2.1-56.1,5.3c-10.4,1.8-19.5,7.1-27.5,13.9
	c-5.2,4.4-9.8,9.1-11.3,16.4c-0.8,3.9-3.8,6.9-6.5,9.9c-2.1,2.4-3.5,5.2-2.1,7.7c1.6,2.6,4,5.2,8,4.9c10.2-0.8,20.2-2.6,30.3-4.4
	c10.8-1.9,21.1-5,31.5-8.4c7.8-2.5,14.6-6.8,22.1-9.6c4.8-1.8,8.6-1.5,13.3,0.6c13.2,5.7,18.6,17.1,23.3,29.3
	c2.1,5.3,6.2,9.7,6.7,15.8c0.3,3.6,1,7.2-0.2,10.8c-1.5,4.5,0.5,9.1-0.4,13.6c-1.4,7.4-5.8,11.5-13.2,13.6c-10.8,3-21.5,6.5-32.2,10
	c-9.2,3-18.8,4-28.3,5.8c-13.6,2.6-27.5,3.1-41.1,5.4c-7.1,1.2-14.3,2-21.4,2.5c-8.1,0.5-16,2.1-23.9,3.6c-4.5,0.9-8.2,1.9-11.5,5.5
	c-7.4,7.8-5.6,20.1,4.5,23.6C976.1,293.6,988.3,298.6,1002.4,297.8L1002.4,297.8z"/>
<path class="st0" d="M758.4,172.9c7.7,1.9,15.9-3.1,24.9-3.4c8.6-0.2,17.1-2.5,25.5-4.6c1-0.2,2.3,0,2.9-0.6
	c4.7-4.7,11-2.8,16.5-4.3c2.8-0.7,5.8-0.5,8.8-1c6.5-1,12.6,2.9,15.5,9.6c3.1,7.1,7.4,13.6,9.4,21.1c1.7,6.3,3.1,12.6,4,19.1
	c0.5,4.1,3,7.2,4,11c2.9,11.4,1.3,14.2-9.6,18.1c-16.7,5.9-33.9,7.4-51.6,7.6c-18,0.2-36,2.1-53.6,6.8c-8.1,2.1-16.4,1.2-24.6,2.4
	c-8.7,1.2-15,5.4-19.4,12.7c-3.8,6.2-0.8,15,5.3,18.9c11.7,7.4,25.2,9.6,38.3,11.9c6,1,13.5-1.1,20.2-2.8c5.6-1.4,10.3-4,15-7.1
	c7-4.6,14.1-3.4,19.4,3.2c3.8,4.7,7.6,9.3,10.7,14.4c7.5,12.2,9.7,25.2,5.3,39.2c-1.3,4-1,8.5-1.8,12.7
	c-2.4,13.9-10.7,21.7-23.9,25.1c-3.5,0.9-7.1,1.8-10.5,3c-11.4,4.3-22.6,2.7-33.8-0.9c-7.4-2.4-15.1-3.8-22.5-6.3
	c-5.1-1.7-10.1-3.8-15.4-5c-9-2-17.9-4.4-25.8-9.5c-7-4.6-15.1-8.4-20.4-14.5c-5.7-6.5-13.3-11.4-17.3-19.2
	c-5.9-11.8-11.7-23.6-12.2-37.2c-0.2-8-3.1-15.6-3-23.6c0.1-9.2,1.4-18.4,2-27.6c0.7-10.8,5-20.6,7.5-30.8c2-8.2,6.5-15.9,10.7-23.4
	c3.7-6.5,5.2-13.8,8-20.6c4.2-10.4-2.8-16.4-7.7-23c-4.3-5.8-7-12.5-11.5-18c-1.5-1.9-0.4-4.1-0.6-6.2c-0.8-8.7-1.1-17.6-0.8-26.2
	c0.2-6.6,2.6-14.6,9.9-18.8c2.1-1.2,4-2.8,5.7-4.7c5.2-5.8,11.2-9.4,19.7-8.6c7.2,0.7,12.8-4.8,19.2-7.3c6.2-2.4,12.3-5.5,18.9-5.3
	c14,0.4,27-4,40.4-6.5c9.7-1.8,18.7-5.7,28.6-7.1c13.2-1.9,26.1-5.9,39.2-9c0.7-0.1,1.3-0.4,2-0.4c10.2-0.2,20.4-1,30.5-2.3
	c9-1.1,16,2.2,21.6,8.9c4.5,5.5,9.9,10.9,11.8,17.5c2.4,8.6,7.8,15.9,9.8,24.6c0.9,4.2,5,7.1,4.5,11.9c-0.2,2.2-0.3,4.3-2,5.9
	c-0.6,0.6-1.3,1.2-1.5,2c-2,10.6-11.2,9.9-18.7,12.2c-10.1,3-20.7,3.1-30.9,6.1c-7.7,2.2-15.8,2.8-23.8,3.8
	c-9.3,1.2-18.6,1.7-27.4,6c-5.8,2.8-13,1.9-19.3,3.9c-10,3.1-20.4,5-30.3,8.4c-8.5,2.9-13.7,8.7-16.8,17.9
	c-4.8,14.5,2.4,20.1,15.4,19.9C754.3,172.9,755.6,172.9,758.4,172.9L758.4,172.9z"/>
</svg>
