<?xml version="1.0" encoding="UTF-8"?>
<svg id="Calque_1" data-name="Calque 1" xmlns="http://www.w3.org/2000/svg" viewBox="0 0 701.03 500.83">
  <defs>
    <style>
      .cls-1 {
        fill: #fff;
      }
    </style>
  </defs>
  <path class="cls-1" d="m453.65,152.95c-.74-8.77,4.45-15.83,7.54-24.54-1.91,1.11-3.07,1.66-4.09,2.4-10.52,7.62-12.06,25.61-3,34.85.87.89,1.78,1.75,2.69,2.6,8.87,8.28,10.64,16.61,6.43,28.13-2.22,6.1-7.54,6.09-12.55,7.43-2.4-5.91-1.98-11.78-.48-18.41-4.11,2.68-6.05,5.85-5.87,9.75.19,4.2.95,8.41,1.9,12.51,1.55,6.71.83,9.49-5.16,12.77-3.78,2.07-7.96,3.58-12.13,4.72-5.11,1.4-9.59-.08-12.99-4.4-1.93-2.45-3.92-4.87-6.08-7.12-3.23-3.37-7.17-5.15-13-4.64,3.54,2.87,6.41,5.16,9.24,7.51,4.43,3.67,7.57,7.99,6.75,14.18-.48,3.64-1.75,6.25-6.04,6.88-1.69.25-3.37,2.25-4.55,3.83-1.74,2.35-10.86,7.11-13.64,6.59-.55-.1-1.08-.55-1.52-.96-1.85-1.73-3.52-.99-4.86.55-1.95,2.25-3.69,4.68-5.66,7.22-1.46-2.42-2.69-4.82-4.27-6.97-1.84-2.5-4.08-2.7-6.24-.24-1.88,2.15-3.72,4.33-5.8,6.77-1.58-1.68-2.96-3.21-4.42-4.68-2.21-2.23-4.66-2.93-7.28-.72-1.69,1.43-3,1.37-4.91.06-1.99-1.37-4.52-1.92-6.77-2.93-1.78-.8-3.48-1.81-5.25-2.64-1.74-.81-3.51-1.57-5.3-2.25-.67-.26-1.87,0-2.1-.39-2.22-3.84-5.57-3.01-8.85-2.17-2.85-8.68-3.22-13.22-15.87-5.4,2.84-8.76,6.65-15.89,14.05-20.53,8.46-5.29,15.78-.7,23.15,3.17.45-4.86-3.62-9.7-9.3-10.05-4.13-.26-8.56.21-12.48,1.48-5.05,1.65-9.85,4.21-14.55,6.77-11.68,6.37-21.75,1.51-23.92-11.85-.38-2.31,0-4.74-.22-7.08-.6-6.29-.87-12.68-2.22-18.82-.68-3.08-3.42-5.71-5.24-8.54-.38.2-.75.4-1.13.6.9,5.74,1.8,11.49,2.69,17.23l-1.05.59c-1.09-1.82-2.83-3.54-3.14-5.49-.9-5.65-1.51-11.39-1.64-17.11-.05-2.17,1.03-4.77,2.43-6.48,5.21-6.33,6.02-13.2,3.6-20.77-1.05-3.27-1.96-6.59-2.94-9.89-.39.04-.79.08-1.18.12v19.83l-1.23.27c-.68-1.37-1.59-2.67-1.99-4.11-9.44-34.04-8.45-66.92,12.48-96.85,13.2-18.87,32.13-30.28,53.51-38,27.45-9.92,55.16-10.39,82.59-.96,34.42,11.83,52.72,37.17,57.25,72.79,2.33,18.28-.26,36.13-6.48,53.46-1.86,5.17-3.61,10.38-5.53,15.53-.62,1.67-1.64,3.19-2.47,4.78-.32-.13-.64-.27-.96-.4Zm-10.77-30.25c-2.78-2.71-6.39-2.34-9.75-.97-3.79,1.55-7.47,3.5-10.92,5.71-14.51,9.28-29.84,15.08-47.45,12.13-.79-.13-1.64.12-3.66.29,1.96,4.08,3.28,7.84,5.42,11.05,3.78,5.67,6.14,11.63,6.41,18.49.12,2.96.65,5.98,1.55,8.79,1.07,3.31,3.45,5.49,8.02,5.96-5.9-6.24-7.3-12.95-5.58-21.63,3.96,3.76,7.48,6.71,10.54,10.09,3.35,3.69,5.86,8.22,9.49,11.55,3.09,2.83,7.12,4.81,11.01,6.52,2.26,1,4.85.2,6.55-2.6-4.33-1.15-8.99-1.38-10.98-6.37,2.47-1.04,4.89-1.76,7.02-3,13.54-7.85,25.57-16.74,22.57-35.24-.12-.73-.08-1.5-.04-2.25.22-4.41-1.92-7.34-5.72-9.26-2.26-1.14-4.5-2.31-6.75-3.47-.02-.34-.03-.69-.05-1.03,4.08-1.58,8.17-3.17,12.29-4.76Zm-149.46,56.51c0,.2,0,.4,0,.6,1.7.2,3.42.69,5.09.56,9.7-.8,18.42-3.16,24.46-12.07,6.4-9.44,16.1-14.79,26.64-18.68-4.24,6.71-8.88,13.04-13.1,19.65-1.5,2.35-1.98,5.36-2.93,8.06.38.13.76.27,1.15.4.64-5.58,4-9.56,7.71-13.32,3.86-3.9,7.99-7.56,11.52-11.73,3.5-4.13,5.31-9.11,5.01-14.85-1.85-.08-3.33-.16-4.81-.21-14.59-.52-27.43-4.68-36.7-16.92-1.92-2.53-4.58-4.62-7.21-6.46-4.82-3.36-10.47-3.73-15.21-1.19,4.78.39,8.85,1.49,11.34,6.01-1.26.3-2.32.64-3.41.8-6.13.94-10.6,4.32-13.44,9.69-1.85,3.51-3.49,7.19-4.69,10.96-2.11,6.62-.86,12.55,4.52,17.36,4.84,4.32,9.65,8.67,14.35,13.14,3.07,2.92,2.66,4.8-1.36,6.13-2.89.95-5.95,1.4-8.94,2.07Zm68.15-28.17c-1.2,1.39-1.98,2.01-2.38,2.82-2,3.99-3.84,8.07-5.85,12.06-2.3,4.56-5.05,8.92-7,13.61-2.39,5.75-1.94,11.77-.39,18.48,1.48-2.43,2.27-4.52,3.72-5.92,2.94-2.85,3.14,2.01,4.99,2.12,1.47-1.57,2.87-3.07,4.84-5.17.61,6.44,1.11,11.71,1.61,16.99.36.02.73.04,1.09.07.32-1.48.7-2.95.93-4.44.44-2.83.42-5.81,1.35-8.46.54-1.54,2.54-2.56,3.89-3.82.88,1.52,2.1,2.95,2.54,4.58.5,1.85.3,3.9.4,5.86.35,0,.7.02,1.05.03.43-1.9.63-3.9,1.37-5.67.51-1.23,1.78-2.14,2.71-3.19,1.14,1.01,2.77,1.81,3.3,3.07.81,1.92.85,4.17,1.36,7.08,3.07-5.12,2.74-9.57.97-14.2-1.24-3.24-2.31-6.55-3.32-9.87-1.64-5.33-3.1-10.71-4.77-16.03-1.12-3.56-2.49-7.05-3.73-10.57-.38-1.08-.73-2.18-1.09-3.26-.38.02-.76.05-1.14.07,0,7.3.55,14.7-3.52,21.4-5.18-4.82-1.49-11.01-2.92-17.62Zm-69.54-45.94c2.59-1.52,4.89-2.69,6.99-4.13,5.18-3.56,10.2-3.04,14.8.8,3.33,2.79,6.57,5.82,9.26,9.21,10.83,13.65,25.41,18.7,42.03,17.51,5.35-.38,9.79.29,14.55,2.14,4.26,1.66,8.78,2.73,14.13.9-1.54-2.21-2.6-4.35-4.24-5.89-1.77-1.66-4.07-2.75-5.79-3.86.6-3.14,1.17-6.12,1.75-9.11-7.25-1.11-10.11.29-14.89,6.96-14.13-3.01-28.55-20.51-29.3-35.54.33-.34.66-.67.99-1.01,1.44,2.08,2.89,4.15,4.33,6.23.34-.25.69-.49,1.03-.74,1.66-10.58-2.46-19.47-8.14-27.75.45-2.26.84-4.59.38-6.74-1.5-7.04-1.3-13.85,1.46-20.57.58-1.41.7-3.17.47-4.69-.1-.67-1.52-1.28-2.45-1.64-.67-.26-1.51-.05-3.38-.05-1.66,2.81-3.75,6.36-5.86,9.93-2.89-1.96-5.83-.32-8.37,2.1-7.23,6.9-12.74,14.78-13.11,25.24-.28,7.71-2.94,14.28-8.49,19.74-1.94,1.91-3.51,4.22-5.05,6.49-2.82,4.17-3.74,8.81-3.09,14.46Zm106.63,8.31c5.26,1.3,9.51,2.23,13.69,3.41,7.22,2.03,10.59.42,12.59-6.87,1.74-6.37,2.64-12.98,4.5-19.31,2.16-7.36,2.51-14.68,1.32-22.18-.37-2.34-.85-4.74-.68-7.07.55-7.61-2.72-13.64-6.78-19.73-3.34-5.01-5.65-10.71-8.41-16.11-.33-.64-.63-1.29-.77-1.58-2.6-.24-4.99.02-7-.73-9.97-3.71-20.4-4.63-30.83-5.61-5.73-.54-11.43-.63-17.07-2.4-3.7-1.16-7.93-.64-11.93-.87-.24.48-.48.96-.72,1.44,1.99,2.61,3.74,5.47,6.03,7.77,2.04,2.04,3.04,3.93,2.53,6.9-.81,4.73,1.66,6.57,6.15,4.62,2.83-1.23,5.46-2.92,7.24-3.89,4.27,2.59,8.21,4.58,11.66,7.22,2.36,1.81,5.23,4.26,5.78,6.86,1.18,5.61,2.64,10.77,7.7,14.9-2.76.15-4.83-.12-6.62.47-1.85.61-4.58,1.84-4.84,3.2-.32,1.68.98,4.65,2.48,5.55,6.58,3.94,11.12,8.99,12.08,16.89.41,3.39,1.64,6.71,1.82,10.1.31,5.82.09,11.66.09,17.04Z"/>
  <path class="cls-1" d="m179.46,216.49c1.42,6.03,3.85,11.63,1.46,17.75-.47,1.2-.42,2.74-.2,4.05.98,6.01,2.09,12,3.23,18.37h10.42c-1.51,2.78-2.6,4.96-3.85,7.05-1.76,2.96-1.12,5.41,1.19,7.75,5.57,5.64,11.22,6.49,17.64,1.77,6.99-5.15,14.68-6.54,23.02-5.78,1.11.1,2.22.33,3.31.57.57.13,1.1.41,1.67.62-3.47,6.55-6.67,13.01-10.32,19.21-1.04,1.77-3.22,3.18-5.19,4.01-2.05.86-2.31,1.9-2.38,3.9-.16,4.21-.76,8.41-1.27,12.6-.73,6.02-1.54,12.04-2.32,18.08-9.37-1-14.31-9.62-17.24-31.84-4.59,0-9.39-.27-14.12.17-1.35.13-2.98,2.15-3.62,3.67-.9,2.12-1,4.59-1.62,7.85-3.31-1.38-6.4-2.68-8.96-3.75-5.04,6.14-10.48,12.21-15.19,18.81-1.81,2.54-2.21,6.23-2.77,9.48-.45,2.63-.87,4.93-3.82,5.74-2.8.77-4.2-.99-5.96-2.77-3.19-3.24-6.35-6.88-10.26-8.97-19.05-10.15-39.56-16.51-60.27-22.24-.34-.09-.72-.01-1.27-.01-.37,2.03-.74,4.07-1.24,6.78-18.43-8.7-35.21-19.23-51.72-30.23.13-.36.27-.72.4-1.08,19.57,1.5,39.15,3.01,59.33,4.56-1.28,3.5-2.44,6.67-3.72,10.16,11.61,4.25,22.74,8.65,34.1,12.37,9.21,3.02,18.57,5.82,28.08,7.61,9.62,1.81,17.07-2.17,20.59-9.36,3.71-7.57,1.99-15.77-5.2-20.97-3.88-2.81-8.39-4.94-12.91-6.61-19.65-7.3-39.41-14.29-59.12-21.44-8.7-3.15-8.69-3.19-9.91,6.21-24.42-10.55-46.47-25.05-69.41-37.98,27.65-1.27,54.81,2.16,82.86,5.55-2.82,3.94-5.42,7.57-8.3,11.58,4.86,1.71,9.27,3.38,13.74,4.83,19.59,6.31,39.16,12.67,58.81,18.77,7.59,2.35,14.87,1.57,20.84-4.43,3.61-3.63,5.16-7.95,3.75-13-.73-2.64-1.69-5.22-2.68-7.77-2.27-5.82-6.31-9.55-12.4-11.48-15.1-4.78-30.11-9.88-45.15-14.85-3.87-1.28-7.75-2.54-11.9-3.91-.68,2.66-1.25,4.89-1.96,7.67-18.03-8.4-35.18-17.54-50.43-29.88.12-.54.24-1.07.37-1.61,19.39.95,38.78,1.9,58.46,2.87-.21,1.54-.2,2.03-.35,2.47-2.16,6.41-1.93,7.41,4.36,9.72,16.15,5.94,32.4,11.62,48.61,17.43,5.64,2.02,11.33,1.19,17.03.39,1.2-.17,2.41-.3,3.81-.47Zm-3.99,71.42c5.51.41,10.69.94,15.88,1.13,6.1.22,10.82,2.24,13.45,8.21,1.55,3.53,4.3,6.01,8.81,6.95-.44-4.12-.8-7.91-1.25-11.7-.21-1.78-.07-2.89,1.65-4.34,3.13-2.63,5.53-6.14,8.45-9.54-5.53-2.06-9.75-.5-13.87,1.82-3.15,1.77-6.27,2.95-9.82.74-6-3.72-12.11-7.26-18.4-11.02,1.87-2.47,3.89-5.14,6.03-7.99-4.43-1.9-7.05.34-9.93,2.45-2.33,1.7-4.97,3.29-7.72,4.01-6.08,1.59-12.38.96-18.61.99-1.02,0-2.04.15-3.54.27,6.48,4.39,12.4,8.48,18.42,12.45,1.93,1.27,2.93,2.46,2.56,5.09-.67,4.65,2.05,8.69,6.98,11.11.14-1.83.27-3.52.41-5.2.16-1.84.34-3.67.5-5.44Z"/>
  <path class="cls-1" d="m377.67,327.13c1.44-.21,2.97-.18,4.32-.65,10.82-3.79,21.57-7.76,32.4-11.49,4.45-1.53,9.04-2.72,13.6-3.9,20.04-5.15,40.49-9.09,60.02-15.73,13.18-4.48,26.17-10.37,38.3-17.75,12.35-7.51,23.56-16.38,34.1-26.19,9.87-9.19,19.4-18.76,29.62-27.55,10.4-8.95,22.06-15.95,35.78-18.78,24.55-5.06,49.61,5.77,63.9,26.38,20,28.84,11.55,66.64-10.08,85.63-14.05,12.33-30.21,17.02-48.62,13.75-9.7-1.72-19.37-3.67-29.09-5.28-6.67-1.11-13.26-.52-19.27,2.88-2.1,1.19-3.87,2.95-5.86,5.05,3.45-2.03,4-.38,3.91,2.27-.15,4.69-3.98,8.16-9.31,8.4-5.37.24-9.5-3.11-10.08-8.45-.63-5.81,1.98-10.21,6.65-13.36,9.11-6.13,19.34-6.76,29.87-5.9,12.06.99,24.26,3.48,36.17,2.48,28.63-2.42,50.16-19.25,52.12-49.44,1.17-18.08-8.16-30.9-22.99-40.07-21.47-13.26-45.15-9.69-64.25,6.23-13.6,11.34-26.07,24.04-39.08,36.08-2.35,2.17-4.93,4.1-7.79,5.74,8.43-12.06,18.6-22.55,29.22-32.58,10.63-10.04,22.21-18.8,36.1-24.09-.16-.33-.32-.66-.48-.99-3.17,1.31-6.41,2.45-9.49,3.95-15.06,7.37-27.32,18.29-38.46,30.6-5.03,5.55-10.21,11.01-14.82,16.9-7.74,9.92-17.47,16.97-28.9,21.95-22.02,9.6-44.79,16.89-68,22.98-20.15,5.29-40.25,10.83-60.26,16.63-6.42,1.86-12.38,2.21-18.54-.59-3.36-1.53-6.95-2.53-11.22-4.06,1.62-.97,2.62-1.83,3.77-2.22,9.21-3.1,18.53-5.73,27.1-10.65,3.64-2.09,8.37-2.29,12.61-3.32,19.65-4.76,39.29-9.53,58.94-14.26,1.73-.42,3.52-.58,5.43-.2-32.98,8-65.74,16.62-97.36,29.6Z"/>
  <path class="cls-1" d="m629.93,418.3c-1,.38-1.99.77-2.99,1.15.03.24.05.49.08.73,3.14,0,6.29.04,9.43-.01,3.12-.06,6.24-.44,9.34-.27,4.76.26,7.19,2.27,7.61,5.73.52,4.29-1.9,8.42-5.84,9.87-4.1,1.5-7.78.29-11.61-1.68,3.51-5.08,8.66-6.74,14.07-7.97-.08-.36-.16-.72-.24-1.08-1.7.16-3.45.12-5.08.55-1.29.34-2.48,1.17-3.63,1.91-7.96,5.18-16.17,5.31-24.58,1.28-7.05-3.38-14.35-5.75-22.22-6.14-1.48-.07-3.02-.33-4.4-.84-2.42-.89-4.74-2.05-7.09-3.09.08-.48.16-.97.24-1.45,2.98.27,5.95.53,8.93.8l.14-.96c-3.69-.52-7.39-1-11.08-1.56-4.75-.72-9.52-1.39-14.22-2.35-.82-.17-1.37-1.64-1.8-2.94-6.31-.66-13.37,2.16-19.24-3.62,1-.37,1.93-.7,2.98-1.09-.29-.31-.49-.73-.74-.76-2.31-.31-4.76-1.15-6.94-.7-8.75,1.83-15.82-2.31-23.01-6.03-.82-.42-1.1-1.9-1.91-3.39-7.92,2.34-15.4-1.36-23.18-4-12.82-4.35-25.81-8.19-38.69-12.36-1.23-.4-2.19-1.63-3.92-2.98-6.44,1.05-13.29-.32-19.66-5.36,1.03-.57,1.78-.98,2.87-1.59-6.42-.49-12.5-.85-18.55-1.5-1.76-.19-3.44-1.16-5.14-1.83-1.61-.63-3.13-1.68-4.79-1.93-9.95-1.5-18.81-5.58-27.25-10.86-1.09-.68-2.56-1.05-3.86-1.05-8.86-.03-16.88-2.67-24.59-6.93-2.85-1.57-6.35-1.91-9.47-3.05-5.24-1.91-10.45-3.91-15.56-6.13-.74-.32-.84-2.11-1.4-3.67-12.02,2.92-22.22-3.5-33.48-8.33,1.2-.5,1.84-.77,3.33-1.39-4.11-.53-7.31-.94-10.76-1.38.29-.79.51-1.41.76-2.09-.36-.04-.73-.15-1.05-.09-9.81,1.95-18.44-.9-26.58-6.25-1.64-1.08-3.85-1.81-5.79-1.81-7.15,0-13.83-1.81-20.27-4.67-.99-.44-1.59-1.74-2.37-2.65.2-.25.41-.5.61-.76-.2-.12-.39-.27-.6-.35-1.74-.67-4.96-1.31-4.97-1.99-.02-2,.85-4.29,2.06-5.97,2.01-2.8,5.11-4.18,8.56-3.48,4.22.86,8.35,2.16,13.42,3.5-1.67,1.19-2.38,1.7-3.54,2.53,4.92.48,9.27.78,13.58,1.37,4.72.64,9.4,1.41,12.19,6.17.46.79,2.19,1.13,3.36,1.18,12.36.54,23.15,6.72,34.72,10.04,7.18,2.06,13.62,6.62,21.47,7.78,4.93.73,9.49,3.75,14.35,5.32,7.33,2.37,14.8,4.32,22.17,6.56,2.47.75,4.93,1.66,7.23,2.83,3.1,1.58,6.03,3.49,8.28,4.8,1.63-.59,2.72-1.42,3.46-1.18,2.59.84,5.11,1.94,7.57,3.13,2.35,1.14,4.5,2.74,6.91,3.72,1.51.62,3.43,3.01,5.04-.14.12-.23,1.24-.17,1.78.06,3.99,1.67,8,3.32,11.88,5.22.65.32.74,1.78,1.17,2.94,11.29.74,23.07.31,34.08,5.74-.79.17-1.59.34-2.38.52-.02.16-.05.31-.07.47,7.39,1.41,14.79,2.83,22.64,4.33q-2.68,3.24-9.67,3.13c1.49.28,2.98.84,4.46.8,9.91-.25,19.74.06,29.11,3.84,2.07.84,4.13,1.71,6.31,2.62-.32.94-.57,1.65-.95,2.76,7.24-1.94,12.98.7,18.74,4.14,2.74,1.64,6.27,1.89,9.38,2.96,3.81,1.31,7.64,2.66,11.32,4.29,3.5,1.56,6.78,3.6,10.26,5.2.55.25,1.62-.73,2.48-1.01.76-.25,1.67-.62,2.35-.41,2.25.68,4.41,1.67,6.65,2.4,3.75,1.23,7.57,2.28,11.3,3.57,2.2.76,4.34,1.75,6.43,2.79,1.93.96,3.62,3.35,5.93.53.22-.27,1.21,0,1.8.15,3.01.78,6.16,1.26,8.98,2.49,7.73,3.37,15.7,5.6,24.07,6.71,3.31.44,6.45,2.07,9.67,3.15-.13.45-.26.89-.4,1.34Z"/>
  <path class="cls-1" d="m340.72,348.34c-5.81,1.89-11.19,3.91-16.72,5.39-17.33,4.66-34.77,8.96-52.08,13.7-22.85,6.26-45.56,13.01-68.43,19.17-24.68,6.64-49.62,12.36-74.18,19.4-18.43,5.28-36.44,12.01-54.63,18.12-2.6.87-5.09,2.09-7.73,2.8-2.37.64-4.97.66-5.97-2.24-1.01-2.94,1.38-4.1,3.45-4.87,10.38-3.86,20.78-7.65,31.24-11.29,5.41-1.88,11.64-2.33,16.25-5.34,6.27-4.1,13.73-4.18,20.81-7.92-1.75-.29-2.67-.45-3.58-.6-.01-.17-.03-.33-.04-.5,11.79-3.01,23.58-6.02,35.37-9.03.05.16.11.32.16.48-13.31,5.34-26.62,10.68-39.93,16.01l.34.88c1.12-.38,2.28-.68,3.37-1.15,21.61-9.35,44.27-15.23,66.98-21.12,21.84-5.67,43.35-12.59,65.04-18.83,16.42-4.72,32.9-9.19,49.33-13.87,3.78-1.08,7.45-2.55,10.98-4.44-50.39,12.98-99.57,30.33-150.73,40.62.68-.3,1.33-.69,2.04-.89,48.89-13.66,97.78-27.32,146.71-40.86,2.14-.59,4.79-.59,6.87.12,4.93,1.68,9.66,3.95,15.1,6.24Z"/>
  <path class="cls-1" d="m219.83,486.39c-3.09-.65-5.07.9-5.77,4.67-.33,1.78-1.26,3.57-2.36,5.03-.68.89-2.23,1.59-3.32,1.5-.61-.05-1.47-1.87-1.51-2.92-.07-1.71.36-3.46.73-5.15,2.8-12.65,5.66-25.28,8.47-37.92.49-2.2,1.18-4.2,3.92-4.18,2.87.02,5.1,1.05,5.87,4.14,1.92,7.73,3.77,15.48,5.8,23.19,1.71,6.48,3.75,12.87,5.33,19.38.26,1.08-.8,2.94-1.8,3.71-.67.52-2.84.18-3.44-.53-1.15-1.38-1.75-3.26-2.42-4.99-2.08-5.39-3.18-6.16-9.49-5.91Zm.2-21.15c-.99,2.87-1.87,5.44-2.75,8-.16.47-.34.94-.43,1.42-.59,3.08,1.27,4.63,3.84,4.74,1.62.07,4.12-.74,4.78-1.95,1.23-2.26-2.6-10.4-5.43-12.22Z"/>
  <path class="cls-1" d="m499.56,475.96c-.28-5.35-.53-10.71-.83-16.06-.35-6.33,2.09-9.89,7.08-10.27,9.33-.72,13.03,1.53,13.6,8.66.52,6.51,1.52,12.9-2,19.33-1.41,2.58.22,6.95.77,10.46.32,2.06,1.48,4,1.79,6.06.34,2.27.87,5.28-2.33,5.82-3.22.54-3.56-2.47-4.08-4.74-.91-4-1.42-8.11-2.64-12-.62-1.99-2.53-5.18-3.67-5.11-3.25.22-2.09,3.51-2.31,5.71-.4,3.97-.56,7.97-1.16,11.9-.21,1.39-1.43,2.63-2.18,3.94-.79-1.41-2.17-2.79-2.25-4.25-.26-4.47-.02-8.97.02-13.46.02-2,0-3.99,0-5.99.07,0,.14,0,.21-.01Zm4.48-12.46c.21,1.86.04,3.5.63,4.78.66,1.43,1.84,3.36,3.08,3.61,1.54.31,3.79-.42,5.02-1.51,3.42-3.06,3.04-11.29-.35-14.34-3-2.71-6.36-1.89-7.46,1.95-.54,1.89-.66,3.9-.92,5.51Z"/>
  <path class="cls-1" d="m422.94,447.96c3.61,1.89,4.7,4.19,4.55,7.64-.19,4.2.04,8.47.63,12.64.17,1.21,2.11,2.86,3.43,3.05,2.59.39,4.67-1.11,5.01-3.9.58-4.83,1.06-9.68,1.28-14.54.11-2.53,1.1-3.61,3.92-3.66.07,1.36.18,2.67.19,3.98.02,9.49-.1,18.99.07,28.48.06,3.2.5,6.47,1.32,9.56,1.03,3.88.11,6.58-3.74,8.49-2.52-2.81-2.84-6.11-2.46-9.65.29-2.72.7-5.47.56-8.18-.16-3.16-1.83-5.68-5.28-5.67-3.39,0-5.18,2.36-5.36,5.6-.2,3.61.16,7.25-.1,10.85-.18,2.45-1.02,4.84-1.57,7.26-.61.07-1.21.14-1.82.21-.84-1.75-2.32-3.47-2.41-5.26-.48-9.34-1.13-18.73-.65-28.05.24-4.59,2.51-9.01,1.07-13.9-.37-1.28.79-3.01,1.37-4.94Z"/>
  <path class="cls-1" d="m307.43,499.62c-.65-2.55-1.73-5.08-1.86-7.65-.4-7.85-.56-15.71-.54-23.57.01-5.1.34-10.22.91-15.29.16-1.47,1.63-2.8,2.49-4.19.94,1.29,2.54,2.5,2.7,3.88.5,4.29.48,8.65.61,12.98.08,2.71.88,4.68,4.06,4.61,2.98-.07,5.13-1.15,5.3-4.49.16-3.24.18-6.49.38-9.73.08-1.36.18-2.86.81-3.99.57-1.01,1.89-1.59,2.87-2.36.53,1.09,1.51,2.18,1.52,3.27.07,9.69-.14,19.37,0,29.06.05,3.59.75,7.17,1.27,10.74.45,3.06-.38,5.37-4.33,7.14-.7-3.06-1.63-5.81-1.9-8.62-.27-2.83.24-5.73.17-8.6-.15-6.19-2.14-7.74-8.23-6.63-.73.13-1.45.36-2.49.62-.96,7.46,3.33,15.64-2.34,22.56-.47.08-.93.16-1.4.23Z"/>
  <path class="cls-1" d="m384.9,498.46c-.67-1.57-1.87-3.12-1.92-4.7-.11-3.83.45-7.68.5-11.52.08-6.21-.12-12.42-.03-18.63.06-3.72.27-7.45.74-11.14.35-2.75,2.06-4.45,5.06-4.51,1.24-.03,2.48-.29,3.72-.28,9.5.09,11.9,2.44,12.27,11.86.08,1.99.28,3.98.37,5.97.29,6.44-3.53,10.74-9.88,11.18-4.95.34-6.66,1.74-7.3,6.66-.39,2.95-.06,5.99-.38,8.95-.22,2.06-1,4.05-1.53,6.08-.54.03-1.08.05-1.62.08Zm14.92-36.41c-.21-2.07-.22-3.21-.45-4.3-.69-3.39-3.22-3.69-6.04-3.51-2.95.19-3.28,2.15-3.15,4.48.14,2.49-.02,5.04.49,7.45.31,1.44,1.56,3.64,2.56,3.73,1.5.15,3.76-.84,4.6-2.08,1.25-1.86,1.54-4.36,1.98-5.77Z"/>
  <path class="cls-1" d="m539.17,482.13c-.61-1.85-1.7-3.68-1.75-5.54-.2-7.85.05-15.71-.16-23.57-.09-3.54,1.81-5.19,4.71-5.53,3.17-.37,6.48-.3,9.65.15,3.22.45,4.56,2.92,5.17,6.06,2.37,12.29-.22,24.53-.2,36.8,0,5.13-2.02,6.64-7.03,7.65-.24.05-.49.17-.73.15-3.64-.29-7.28-.6-10.92-.9.38-4.38.71-8.76,1.18-13.13.09-.8.75-1.54,1.15-2.3-.35.05-.71.11-1.06.16Zm2.08,2.78c.04,5.16,2.21,8.1,5.64,8.5,3.19.37,5.22-1.56,6.23-6.08.35-1.57.61-3.2.62-4.81.06-8.31.06-16.62.01-24.92-.02-3.58-3.88-6.48-7.99-6.13-3.11.26-3.99,2.54-3.75,6.81.38,6.81.34,13.66.25,20.49-.03,2.34-.75,4.66-1.01,6.15Z"/>
  <path class="cls-1" d="m190.06,450.89c-1.8.37-3.13.65-4.47.92-6.23,1.26-7.7,3.47-7.34,11.06.23,4.8,2.83,7.17,8.23,7.88,1.28.17,2.46,1.15,3.68,1.76-1.06,1.04-1.98,2.75-3.2,3.02-9.02,1.96-7.94,3.84-7.59,11.25.31,6.75,1.28,7.49,8,6.68,3.23-.39,5.66.37,7,4.91-5.7.22-11.07.72-16.42.53-2.99-.1-4.53-2.67-4.53-5.56-.01-7.7.24-15.39.31-23.09.03-3.24-.11-6.47-.18-9.71-.05-2.12-.33-4.26-.12-6.35.54-5.45,2.72-7.29,8.14-6.44,2.8.44,6.4-.88,8.51,3.14Z"/>
  <path class="cls-1" d="m362.09,268.89c-1.45,5.38-2.69,10.83-4.43,16.12-.82,2.5-2.6,4.68-5.94,3.87-3.48-.85-6.37-3.92-6.15-7.07.63-9.09,1.32-18.18,2.33-27.23.17-1.52,1.8-3.67,3.16-4.03,1.37-.37,3.69.69,4.8,1.87,4.26,4.51,5.61,10.17,6.24,16.48Z"/>
  <path class="cls-1" d="m478.26,451.5c-1.98.47-3.97.93-5.95,1.41-4.91,1.2-6.18,2.77-6.35,7.79-.25,7.2,1.09,8.94,8.08,10.52.37.08.83.03,1.08.24.95.8,1.83,1.69,2.73,2.54-.94.85-1.76,2.21-2.85,2.47-8.94,2.13-10.1,3.68-8.9,12.57.59,4.32,2.77,6.12,7.09,5.86,1.62-.1,3.27-.41,4.84-.19.9.13,2.2,1.02,2.35,1.77.16.79-.63,2.41-1.35,2.64-5.04,1.67-10.37,2.71-15.27.22-1.59-.8-2.71-3.93-2.79-6.04-.24-6.85.08-13.71.23-20.57.1-4.74.56-9.48.37-14.21-.38-9.42,3.12-12.4,12.28-9.91,1.55.42,3.01,1.21,4.51,1.82-.04.35-.08.71-.12,1.06Z"/>
  <path class="cls-1" d="m361.54,476.65c-1.93,0-3.66-.02-5.38,0-4.13.06-5.74,1.56-5.44,5.73.28,3.95,1.03,7.87,1.56,11.69,4.62,1.16,9.7-1.17,14.25,3.44-5.62.93-10.34,1.85-15.1,2.44-2.92.36-4.8-1.32-5.26-4.18-.47-2.94-.87-5.93-.9-8.91-.08-9.61.02-19.23.09-28.84.01-1.49.11-3.01.39-4.47.93-4.83,2.32-5.8,7.15-5.39,1.73.15,3.51.25,5.21,0,2.57-.37,3.74.57,3.77,3.53-2.16.33-4.32.76-6.51.95-2.78.25-4.8,1.81-4.74,4.38.08,3.75.65,7.61,1.82,11.15.39,1.18,3.23,1.89,5.05,2.19,4.51.73,4.87,1.05,4.04,6.28Z"/>
  <path class="cls-1" d="m284.98,458.93c-1.09-1.52-1.6-2.38-2.26-3.11-2.8-3.05-6.46-2.42-8.12,1.37-2.25,5.15.11,11.45,5.3,13.63,3.97,1.67,6.18,4.3,6.39,8.76.13,2.72.9,5.4,1.3,8.12.75,5.09-1,8.56-5.02,10.13-4.31,1.68-10.64.17-12.95-3.25-.67-.99-1.21-2.31-1.18-3.46.03-1.38.74-2.74,1.16-4.11,1.21.67,2.5,1.22,3.59,2.03.77.58,1.26,1.54,1.91,2.29,1.96,2.25,4.01,2.2,6.11.18,4.56-4.41,3.57-11.92-1.97-14.9-.77-.41-1.57-.77-2.37-1.1-9.07-3.76-12.27-14.23-7.23-22.79,2.86-4.86,10-6.27,14.41-2.29,2.61,2.36,2.32,4.64.92,8.51Z"/>
  <path class="cls-1" d="m360.19,285.78c.53-2.54,1.23-4.69,1.38-6.89.41-5.93,1.04-11.89.72-17.79-.26-4.78,1.58-8.2,4.64-11.29,1.72-1.73,3.99-1.66,5.01.56,1.48,3.22,3.13,6.72,3.23,10.15.19,6.57-.34,13.21-1.17,19.74-.79,6.19-3.06,7.52-9.23,6.55-1.34-.21-2.65-.59-4.58-1.04Z"/>
  <path class="cls-1" d="m342.09,285.61c-5.33-.85-8.83-3.61-10-8.58-1.99-8.49-.47-16.89,1.67-25.13.34-1.3,2.54-3.21,3.56-3.03,2.38.42,4.77,1.67,6.75,3.14.98.73,1.53,2.72,1.44,4.09-.54,8.67-1.28,17.32-2.07,25.98-.11,1.16-.85,2.27-1.36,3.53Z"/>
  <path class="cls-1" d="m152.04,456.65c-.59-.27-1.05-.4-1.43-.66-2.36-1.65-4.81-3.02-7.44-.67-2.66,2.38-3.91,5.59-2.17,8.75,1.35,2.47,3.56,4.85,5.98,6.25,3.63,2.1,5.49,4.85,5.92,8.86.34,3.22.81,6.44,1.19,9.66.56,4.72-1.9,8.35-6.44,9.53-4.42,1.15-9.26-1.08-10.74-5.27-.71-2-.75-4.23-1.1-6.35.36-.19.73-.37,1.09-.56,1.15,1.15,2.16,2.53,3.5,3.4,1.68,1.09,3.8,2.69,5.4,2.37,1.58-.31,3.36-2.51,3.98-4.26,2.35-6.67.3-10.21-6.55-12.54-4.64-1.58-8.31-4.23-8.67-9.62-.41-6.05-.65-12.18,4.99-16.33,3.05-2.24,6.5-2.47,9.89-.71,2.66,1.38,3.37,3.85,3.15,6.66-.03.46-.32.89-.55,1.5Z"/>
  <path class="cls-1" d="m386.07,286.64c-2.29-.55-4.87-.69-6.89-1.82-1.4-.79-2.87-2.98-2.84-4.51.14-6.7.67-13.41,1.34-20.09.51-5.09,3.58-8.83,7.17-12.21,5.02,5.3,5.62,23.52,1.22,38.64Z"/>
  <path class="cls-1" d="m328.84,277.03c-5.05.76-7.42-.35-7.87-5.41-.56-6.38-.5-12.89.1-19.27.24-2.55,2.34-5.13,4.14-7.24.77-.9,3.18-1.24,4.34-.72,1.17.53,1.77,2.42,2.51,3.77.21.38.07.98.01,1.48-1.05,9-2.12,17.99-3.23,27.39Z"/>
  <path class="cls-1" d="m313.35,239.22c-1.74,4.18-3.04,8.61-5.34,12.45-2.21,3.69-5.54,3.32-8.09-.21-4.77-6.61-3.15-14.61,3.86-19.02,4.47-2.81,8.04-1.09,8.64,4.2.08.74.01,1.49.01,2.23.31.12.61.23.92.35Z"/>
  <path class="cls-1" d="m390.17,282.5c0-10.2-.3-19.9.13-29.56.2-4.61,4.87-4.02,8.5-5.44.13,2.64.4,4.82.3,6.97-.32,6.57-.54,13.16-1.27,19.7-.43,3.87-2.57,6.93-7.66,8.33Z"/>
  <path class="cls-1" d="m308.34,259.32c.56-8.52,3.47-13.84,8.75-17.74,1.03-.76,2.73-.63,4.11-.91.25,1.36,1.08,2.96.65,4.04-2.63,6.58-3.59,13.4-3.92,20.41-.06,1.27-1.09,3.39-1.91,3.52-1.29.2-3.44-.58-4.08-1.64-1.75-2.88-2.9-6.12-3.6-7.69Z"/>
  <path class="cls-1" d="m407.52,239.56c1.02,5.43,2.32,10.75,2.97,16.14.9,7.53-2.17,12.09-8.71,13.95-3.46-8.2.02-27.22,5.74-30.09Z"/>
  <path class="cls-1" d="m58.67,419.67c1.16-7.06,2.84-8.56,8.83-9.68,11.73-2.19,23.42-4.65,35.13-6.96,1.61-.32,3.26-.42,4.88-.62-16.2,5.72-32.3,11.41-48.83,17.26Z"/>
  <path class="cls-1" d="m413.37,261.59c-1.32-7.65-2.52-14.63-3.78-21.99,7.1,3.58,9.25,15.19,3.78,21.99Z"/>
  <path class="cls-1" d="m86.7,402.15l32.94-5.73c.09.48.17.96.26,1.45-10.91,2.25-21.83,4.49-32.74,6.74-.16-.82-.31-1.64-.47-2.46Z"/>
  <path class="cls-1" d="m292.03,105.09c-.64-5.64.27-10.29,3.09-14.46,1.54-2.27,3.11-4.59,5.05-6.49,5.55-5.46,8.22-12.03,8.49-19.74.38-10.46,5.88-18.35,13.11-25.24,2.54-2.42,5.48-4.07,8.37-2.1,2.11-3.57,4.2-7.12,5.86-9.93,1.86,0,2.71-.21,3.38.05.93.36,2.35.97,2.45,1.64.22,1.52.1,3.27-.47,4.69-2.76,6.73-2.95,13.54-1.46,20.57.46,2.15.07,4.48-.38,6.74,5.68,8.28,9.81,17.17,8.14,27.75-.34.25-.69.49-1.03.74-1.44-2.08-2.89-4.15-4.33-6.23-.33.34-.66.67-.99,1.01.74,15.04,15.16,32.53,29.3,35.54,4.78-6.67,7.64-8.07,14.89-6.96-.57,3-1.14,5.98-1.75,9.11,1.72,1.11,4.02,2.2,5.79,3.86,1.64,1.54,2.7,3.68,4.24,5.89-5.34,1.82-9.86.75-14.13-.9-4.76-1.85-9.19-2.52-14.55-2.14-16.63,1.19-31.21-3.86-42.03-17.51-2.69-3.39-5.93-6.43-9.26-9.21-4.59-3.84-9.61-4.36-14.8-.8-2.1,1.45-4.4,2.61-6.99,4.13Zm83.34,15.15c-.13.51-.25,1.01-.38,1.52-3.22-.85-6.66-1.24-9.63-2.62-12.82-5.97-20.52-16.38-24.3-29.74-1.09-3.86-2.55-7.18-5.56-9.89-3.09-2.78-5-6.26-4.77-10.56.05-.88.84-1.72,1.29-2.58.55.81,1.56,1.6,1.58,2.43.29,8.84,8.28,11.98,12.83,17.73.52-10-2.71-18.54-8.78-25.86.7-2.14,1.36-4.33,1.05-6.36-.97-6.36-1.74-12.63.73-18.83.08-.2-.14-.51-.26-.93-1.21,1.47-2.24,2.72-3.27,3.97l-1.04-.49c.86-2.87,1.72-5.74,2.77-9.25-7.82,4.32-3.76,11.09-4.79,16.63-1.12-1.71-1.91-3.39-2.47-5.14-1.01-3.1-2.92-3.48-5.47-1.94-1.06.64-2.05,1.42-2.95,2.28-7.31,6.99-12.06,15.24-12.39,25.6-.21,6.52-2.41,12.13-6.99,16.87-2.16,2.23-4.06,4.75-5.86,7.29-2.56,3.61-4.14,7.58-3.47,12.49,1.11-.58,1.99-.98,2.82-1.48,9.66-5.8,14.1-5.4,22.12,2.5,3.73,3.67,6.86,7.97,10.67,11.54,10.94,10.23,24.26,12.92,38.79,12.06-.17-1.38-.28-2.25-.44-3.49,7.99,3.38,15.18,8.1,24.37,6.91-2.19-6.25-7.77-7.4-12.95-9.57,5.09-.65,5.15-4.04,5.22-7.56-6.38-.5-9.21.93-10.7,5.34.73.37,1.47.74,2.21,1.12Z"/>
  <path class="cls-1" d="m398.66,113.4c0-5.38.22-11.23-.09-17.04-.18-3.39-1.41-6.71-1.82-10.1-.96-7.89-5.5-12.95-12.08-16.89-1.5-.9-2.8-3.86-2.48-5.55.26-1.36,2.99-2.59,4.84-3.2,1.79-.59,3.86-.32,6.62-.47-5.06-4.13-6.52-9.3-7.7-14.9-.55-2.61-3.41-5.06-5.78-6.86-3.45-2.64-7.39-4.62-11.66-7.22-1.78.97-4.41,2.67-7.24,3.89-4.49,1.94-6.96.11-6.15-4.62.51-2.97-.49-4.86-2.53-6.9-2.3-2.3-4.05-5.16-6.03-7.77.24-.48.48-.96.72-1.44,3.99.23,8.22-.29,11.93.87,5.64,1.77,11.35,1.86,17.07,2.4,10.43.99,20.87,1.91,30.83,5.61,2.01.75,4.4.49,7,.73.14.3.45.95.77,1.58,2.76,5.4,5.07,11.1,8.41,16.11,4.06,6.09,7.33,12.12,6.78,19.73-.17,2.33.31,4.73.68,7.07,1.2,7.5.84,14.82-1.32,22.18-1.86,6.33-2.76,12.94-4.5,19.31-2,7.29-5.37,8.9-12.59,6.87-4.18-1.18-8.43-2.11-13.69-3.41Zm1.21-1.1c4.78,1.24,8.65,2.16,12.48,3.25,6.95,1.98,9.71.66,11.59-6.31,1.43-5.29,2.13-10.79,3.62-16.06,2.3-8.14,3.62-16.25,1.94-24.69-.51-2.56-.89-5.24-.69-7.82.51-6.68-2.32-11.98-5.83-17.34-3.37-5.17-5.91-10.87-8.92-16.28-.45-.82-1.33-1.73-2.18-1.95-3.46-.93-6.97-1.72-10.51-2.35-9.24-1.65-18.51-3.19-27.76-4.78-.11.37-.23.73-.34,1.1,1.3,1.23,2.6,2.45,3.9,3.68-.2.27-.41.53-.61.8-8.67-4.56-17.28-9.34-28.63-7.43,2.08,2.6,3.38,4.74,5.17,6.34,2.63,2.35,4.15,4.67,3.1,8.46-.83,3,.83,4.39,3.79,3.31,2.55-.93,4.87-2.49,7.29-3.78-.08-.33-.17-.66-.25-.99-1.77-.52-3.54-1.03-6-1.76,3.85-2.18,6.79-2.04,8.81,1.03,2.73,4.15,6.33,6.8,10.92,8.6,3.64,1.43,6.42,4.47,6.69,8.43.47,6.78,4.04,11.26,9.09,15.16,3.2,2.48,4.9,6.01,5.51,10.08-1.52-1.13-2.71-2.49-3.55-4.04-1.59-2.9-3.69-5.49-7.08-5.38-2.78.09-6.91.63-7.96,2.43-1.75,3.01,1.98,4.85,4.31,6.3,4.88,3.03,8.76,6.58,9.12,12.82.07,1.19,1,2.3,1.26,3.5.66,3.11,1.49,6.24,1.64,9.4.27,5.46.07,10.94.07,16.28Z"/>
  <path class="cls-1" d="m175.47,287.91c-.16,1.77-.34,3.6-.5,5.44-.14,1.68-.27,3.37-.41,5.2-4.93-2.41-7.65-6.45-6.98-11.11.38-2.64-.63-3.82-2.56-5.09-6.02-3.96-11.94-8.06-18.42-12.45,1.49-.12,2.52-.27,3.54-.27,6.23-.03,12.53.6,18.61-.99,2.75-.72,5.39-2.31,7.72-4.01,2.89-2.11,5.5-4.35,9.93-2.45-2.15,2.84-4.17,5.52-6.03,7.99,6.29,3.75,12.4,7.29,18.4,11.02,3.55,2.2,6.67,1.03,9.82-.74,4.12-2.32,8.35-3.88,13.87-1.82-2.92,3.4-5.32,6.91-8.45,9.54-1.72,1.45-1.86,2.56-1.65,4.34.45,3.79.82,7.58,1.25,11.7-4.52-.94-7.26-3.42-8.81-6.95-2.63-5.98-7.36-7.99-13.45-8.21-5.19-.19-10.36-.72-15.88-1.13Zm-15.3-11.91c-.6-1.58-1.21-3.16-1.85-4.86h-6.85c-.1.36-.2.73-.3,1.09,3.01,1.23,6.03,2.46,9.04,3.69.36.8.52,1.84,1.12,2.35,1.51,1.29,3.16,2.45,4.88,3.45,2.14,1.26,3.05,2.66,2.6,5.41-.72,4.39,1.25,7.5,4.77,8.82.28-3.28.56-6.54.8-9.41,6.33.46,12.02.89,17.72,1.27,6.15.42,10.9,2.75,13.72,8.69,1.13,2.37,3.44,4.18,5.22,6.24.37-.23.74-.47,1.12-.7-.33-3.43-.56-6.87-1.04-10.27-.29-2.05.12-3.12,1.98-4.52,2.74-2.06,4.74-5.11,7.06-7.73l-.98-1.54c-3.52,1.26-7.11,2.36-10.53,3.85-3.05,1.33-6.04,2.77-9.25.96-7-3.95-13.92-8.05-21.04-12.19,1.89-2.39,3.89-4.93,5.9-7.48-.32-.39-.64-.78-.95-1.17-2.09,1.3-4.14,2.67-6.28,3.9-2.43,1.39-4.87,3.58-7.42,3.76-4.68.33-8.32,1.17-9.43,6.4Z"/>
  <path class="cls-1" d="m375.37,120.24c-.74-.37-1.48-.75-2.21-1.12,1.5-4.41,4.32-5.84,10.7-5.34-.07,3.53-.13,6.91-5.22,7.56,5.18,2.17,10.76,3.32,12.95,9.57-9.2,1.19-16.39-3.52-24.37-6.91.16,1.23.27,2.11.44,3.49-14.53.86-27.84-1.83-38.79-12.06-3.82-3.57-6.95-7.87-10.67-11.54-8.02-7.9-12.46-8.3-22.12-2.5-.83.5-1.72.9-2.82,1.48-.67-4.91.9-8.88,3.47-12.49,1.8-2.54,3.7-5.06,5.86-7.29,4.58-4.74,6.79-10.36,6.99-16.87.33-10.37,5.08-18.62,12.39-25.6.89-.85,1.89-1.64,2.95-2.28,2.55-1.54,4.46-1.16,5.47,1.94.57,1.75,1.35,3.42,2.47,5.14,1.03-5.54-3.03-12.31,4.79-16.63-1.05,3.51-1.91,6.38-2.77,9.25l1.04.49c1.03-1.25,2.06-2.51,3.27-3.97.12.41.34.73.26.93-2.47,6.2-1.7,12.48-.73,18.83.31,2.03-.34,4.22-1.05,6.36,6.06,7.33,9.3,15.86,8.78,25.86-4.55-5.76-12.54-8.89-12.83-17.73-.03-.83-1.03-1.62-1.58-2.43-.45.86-1.24,1.7-1.29,2.58-.24,4.3,1.68,7.78,4.77,10.56,3.01,2.71,4.47,6.03,5.56,9.89,3.78,13.36,11.48,23.77,24.3,29.74,2.97,1.38,6.41,1.78,9.63,2.62.13-.51.25-1.01.38-1.52Zm-46.09-67.66c.24.37.48.73.72,1.1,1.5-1.12,3.01-2.25,4.51-3.37-.16-.34-.32-.69-.48-1.03-1.5-.32-3-.63-4.75-1v4.31Z"/>
  <path class="cls-1" d="m399.87,112.3c0-5.34.19-10.82-.07-16.28-.15-3.15-.98-6.28-1.64-9.4-.25-1.21-1.19-2.32-1.26-3.5-.36-6.24-4.24-9.79-9.12-12.82-2.33-1.44-6.06-3.28-4.31-6.3,1.04-1.79,5.18-2.34,7.96-2.43,3.39-.1,5.49,2.48,7.08,5.38.85,1.55,2.04,2.91,3.55,4.04-.62-4.08-2.31-7.6-5.51-10.08-5.05-3.9-8.62-8.39-9.09-15.16-.27-3.95-3.05-6.99-6.69-8.43-4.59-1.81-8.19-4.45-10.92-8.6-2.02-3.07-4.96-3.2-8.81-1.03,2.47.72,4.24,1.24,6,1.76.08.33.17.66.25.99-2.42,1.28-4.74,2.84-7.29,3.78-2.95,1.08-4.62-.32-3.79-3.31,1.05-3.8-.47-6.11-3.1-8.46-1.79-1.6-3.09-3.74-5.17-6.34,11.35-1.91,19.96,2.87,28.63,7.43.2-.27.41-.53.61-.8-1.3-1.23-2.6-2.45-3.9-3.68.11-.37.23-.73.34-1.1,9.26,1.58,18.52,3.12,27.76,4.78,3.53.63,7.04,1.43,10.51,2.35.85.23,1.72,1.13,2.18,1.95,3,5.41,5.55,11.12,8.92,16.28,3.5,5.37,6.34,10.66,5.83,17.34-.2,2.58.19,5.26.69,7.82,1.68,8.44.36,16.56-1.94,24.69-1.49,5.27-2.19,10.77-3.62,16.06-1.89,6.97-4.65,8.29-11.59,6.31-3.83-1.09-7.7-2.01-12.48-3.25Zm8.16-28.34c-.35-.26-.7-.51-1.05-.77-.78.9-2.32,1.98-2.16,2.67.28,1.25,1.58,2.26,2.46,3.37.25-.2.5-.4.75-.6v-4.67Z"/>
  <path class="cls-1" d="m160.2,275.98c1.08-5.2,4.73-6.04,9.41-6.37,2.55-.18,4.99-2.37,7.42-3.76,2.14-1.22,4.19-2.59,6.28-3.9.32.39.64.78.95,1.17-2.01,2.54-4.01,5.09-5.9,7.48,7.12,4.14,14.03,8.24,21.04,12.19,3.21,1.81,6.2.37,9.25-.96,3.42-1.49,7.02-2.58,10.53-3.85l.98,1.54c-2.32,2.63-4.32,5.67-7.06,7.73-1.86,1.4-2.27,2.47-1.98,4.52.48,3.4.71,6.85,1.04,10.27-.37.23-.74.47-1.12.7-1.77-2.06-4.09-3.87-5.22-6.24-2.82-5.95-7.57-8.28-13.72-8.69-5.69-.38-11.38-.81-17.72-1.27-.24,2.87-.52,6.13-.8,9.41-3.51-1.31-5.49-4.43-4.77-8.82.45-2.75-.46-4.15-2.6-5.41-1.71-1.01-3.36-2.17-4.88-3.45-.6-.51-.76-1.55-1.12-2.35l-.02.05Zm24.27,8.87c.07-.23.15-.46.22-.68.87,0,1.78.16,2.6-.05.74-.18,1.82-.65,1.96-1.19.15-.57-.48-1.75-1.06-2.03-3.81-1.81-7.62-3.65-11.6-5.02-1.1-.38-2.75.84-4.14,1.33.65,1.36.95,3.43,2.01,3.94,3.18,1.56,6.65,2.51,10.01,3.69Z"/>
  <path class="cls-1" d="m160.22,275.92c-3.01-1.23-6.03-2.46-9.04-3.69.1-.36.2-.73.3-1.09h6.85c.65,1.7,1.25,3.28,1.87,4.85.01-.01.03-.07.03-.07Z"/>
  <path class="cls-1" d="m329.27,52.58v-4.31c1.76.37,3.25.69,4.75,1,.16.34.32.69.48,1.03-1.5,1.12-3.01,2.25-4.51,3.37-.24-.37-.48-.73-.72-1.1Z"/>
  <path class="cls-1" d="m408.04,83.96v4.67c-.25.2-.5.4-.75.6-.87-1.11-2.17-2.13-2.46-3.37-.16-.69,1.39-1.77,2.16-2.67.35.26.7.51,1.05.77Z"/>
  <path class="cls-1" d="m184.47,284.85c-3.36-1.19-6.83-2.14-10.01-3.69-1.06-.52-1.36-2.59-2.01-3.94,1.4-.49,3.04-1.7,4.14-1.33,3.97,1.36,7.79,3.2,11.6,5.02.59.28,1.21,1.46,1.06,2.03-.14.54-1.22,1.01-1.96,1.19-.82.2-1.73.05-2.6.05-.07.23-.15.46-.22.68Zm2.93-1.02c.23-.68.46-1.36.69-2.04-3.72-1.58-7.4-3.26-11.19-4.64-.91-.33-2.19.37-3.3.59.66.95,1.13,2.47,2,2.77,3.87,1.3,7.85,2.25,11.8,3.32Z"/>
  <path class="cls-1" d="m187.4,283.84c-3.94-1.08-7.93-2.02-11.8-3.32-.88-.3-1.35-1.81-2-2.77,1.11-.22,2.39-.92,3.3-.59,3.79,1.38,7.47,3.07,11.19,4.64-.23.68-.46,1.36-.69,2.04Z"/>
</svg>