<?xml version="1.0" encoding="UTF-8"?>
<svg id="Calque_1" data-name="Calque 1" xmlns="http://www.w3.org/2000/svg" viewBox="0 0 293.83 440.79">
  <defs>
    <style>
      .cls-1 {
        fill: #fff;
      }
    </style>
  </defs>
  <path class="cls-1" d="m64.01,47.17c-37.04,27.17-51.37,62.84-39.38,107.52,6.19,23.07,18.87,42.11,39.26,55.14.48-.23.96-.45,1.44-.68-.3-1.51-.46-3.07-.93-4.53-3.95-12.23-5.17-24.58-3.34-37.45,1.19-8.36,1.23-16.95,1.05-25.42-.77-37.05,14.27-66.01,44.1-87.58,1.21-.88,2.39-1.8,3.57-2.71.11-.08.11-.29.22-.58-.18-.33-.35-.78-.63-1.16-7.45-10.08-10.14-20.8-2.85-31.96C114.29,5.83,125.17-1.67,139.93.32c4.94.67,10.84,3.95,13.72,7.92,4.45,6.13,7.4,13.65,9.65,20.98,1.94,6.32-1.05,9.99-6.84,13.31-7.74,4.43-15.46,8.99-22.63,14.26-5.92,4.36-11.19,4.41-17.15-.11-7.17,8.49-12.55,17.77-16.65,27.78-9.05,22.09-11.27,44.5-1.82,67.03,7.17,17.1,19.62,28.67,37.78,33.51,5.76,1.54,9.56,4.87,12.02,10.25,5.04,11.02,8.66,12.96,20.26,10.51,5.85-1.24,10.97-.45,16.34,2.23,8.7,4.34,15.39,4.95,22.23-4.43,1.86-2.55,6.01-4.8,9.15-4.84,43.36-.67,67.67-35.6,68.23-74.21.03-1.74.18-3.47.27-5.21l1.36-.32c.83,2.32,1.85,4.59,2.46,6.97,4.37,16.98,4.84,34.31,3.66,51.63-2.23,32.77-9.14,64.55-21.84,94.95-2.11,5.06-4.58,9.99-7.09,14.87-8.97,17.41-24.09,25.7-42.86,27.85-12.21,1.4-20.01-5.09-19.94-17.3.06-9.22,2.55-18.4,3.34-27.65.68-7.92.57-15.92.59-23.88,0-1.94-.64-3.96-1.34-5.81-1.61-4.24-3.27-8.89-8.68-9.19-5.2-.29-8.01,3.72-10.16,7.7-4.73,8.75-5.95,18.39-5.49,28.11.72,15.21,3.3,30.03,10.31,43.87,4.78,9.44,2.11,15.1-8.49,17.63-24.21,5.78-51.61-.08-70.39-26.05-10.62-14.69-17.74-31.19-25.05-47.61-2.06-4.63-4.16-9.25-6.24-13.88l-1.81.3c.26,4.07.04,8.25.9,12.2,1.62,7.46,3.99,14.75,5.81,22.18,1.89,7.72-.27,11.7-7.83,13.32-18.43,3.96-38.5-.28-49.63-19.54-9.76-16.88-16.91-34.63-20.25-53.87-.23-1.31-.54-2.67-.41-3.97,1.66-16.82-2.94-33.03-4.62-49.53-4.81-47.23,12.64-88.97,55.45-112.93,2.24-1.25,4.66-2.18,7-3.26.26.36.53.72.79,1.09Zm128.3,167.87c-11.2-1.5-21.98-2.94-32.75-4.37.2,6.1,5.19,10.73,13.22,12.21,9.75,1.8,16.56-.87,19.53-7.84Z"/>
  <path class="cls-1" d="m83.83,397.13c3.96-10.07,7.54-19.17,11.12-28.27.55-1.39,1.06-2.8,1.67-4.17,1.68-3.77,4.5-5.38,8.44-3.73,3.71,1.56,4.59,4.63,3.21,8.24-3.27,8.53-6.66,17.03-10,25.53-5.29,13.46-10.62,26.9-15.82,40.39-1.25,3.23-3,5.73-6.71,5.62-3.72-.11-5.28-2.75-6.36-6.02-4.29-13.08-8.71-26.11-13.44-40.21-5.22,13.24-10.04,25.49-14.87,37.73-.61,1.55-.88,3.49-1.99,4.52-1.79,1.67-4.16,3.76-6.26,3.74-1.85-.02-4.69-2.35-5.35-4.25-7.71-22.3-15.15-44.7-22.49-67.13-1.56-4.78,1.06-8.11,6.09-8.51.5-.04,1-.01,1.5-.01,20.76.08,16.22-1.92,22.13,15.72,2.15,6.42,4.09,12.9,6.56,20.72,2.94-7.41,5.63-13.52,7.72-19.84.59-1.78-.39-4.2-.97-6.24-2.11-7.34.03-10.28,7.75-10.37,3.33-.04,6.67.15,9.99-.04,4.74-.26,7.32,1.79,8.66,6.38,2.83,9.72,6.02,19.34,9.43,30.19Z"/>
  <path class="cls-1" d="m166.27,394.55c-5.69,14.43-10.94,27.67-16.12,40.94-1.27,3.24-3.3,5.91-6.91,5.1-2.03-.45-4.61-2.48-5.27-4.39-7.68-21.96-15.13-44-22.43-66.09-1.99-6.03.63-9.33,6.92-9.5,3.83-.1,7.66.09,11.49-.06,4.56-.17,6.97,2.01,8.24,6.28,2.91,9.82,6.08,19.57,9.43,30.28,2.78-6.94,5.49-12.85,7.41-18.99.7-2.23-.19-5.13-.86-7.58-1.84-6.67.36-9.82,7.33-9.94,3.5-.06,7,.15,10.49-.07,5.03-.32,7.57,2.08,8.94,6.75,2.76,9.41,5.83,18.73,8.78,28.08.03.1.25.14.93.49,3.53-8.9,7.03-17.74,10.54-26.59.61-1.55,1.16-3.12,1.85-4.63,1.6-3.47,4.26-5.28,8.02-3.82,3.88,1.52,5.02,4.65,3.56,8.53-2,5.29-4.14,10.51-6.2,15.78-6.47,16.56-12.82,33.18-19.52,49.65-.95,2.34-3.25,5.01-5.5,5.73-3.63,1.16-6.08-1.35-7.3-5.01-4.4-13.23-8.9-26.43-13.8-40.94Z"/>
  <path class="cls-1" d="m254.15,390.97c6.66,0,12.98.05,19.28-.02,3.9-.05,6.63,1.39,6.75,5.56.12,4.29-2.72,5.69-6.55,5.69-6.33,0-12.65,0-19.9,0,0,6.02,0,11.78,0,17.55,0,4.5.15,9,.02,13.5-.14,4.99-2.07,6.82-7.09,6.91-4.16.08-8.33,0-12.5.02-4.6.03-6.74-2.44-6.75-6.81-.05-22.16-.07-44.33-.02-66.49,0-4.18,2.25-6.47,6.55-6.47,16.5-.01,33-.07,49.49,0,4.71.02,7.65,2.65,7.26,6.3-.48,4.54-3.59,6.04-7.72,6.05-9.47.01-18.93,0-28.82,0v18.21Z"/>
  <path class="cls-1" d="m262.17,16.72c18.32.09,35.19,19.4,31.02,36.17-2.42,9.74-8.55,17.23-17.66,21.81-5.77,2.9-11.15,1.76-15.21-3.29-5.94-7.37-12.85-13.38-21.41-17.56-3.86-1.89-5.91-5.2-5.64-9.73.84-14.12,14.89-27.48,28.89-27.41Z"/>
  <path class="cls-1" d="m248.54,148.83c-.46,9.83-2.37,18.43-12,22.81-8.75,3.98-15.56,1.9-20.19-6.6-3.17-5.83-5.77-11.98-8.34-18.11-1.38-3.29-5.43-5.62-3.29-10.29,3.35-7.28,5.97-15.41,14.14-18.4,3.58-1.31,8.77-.85,12.29.81,12.57,5.9,16.82,17.13,17.38,29.79Z"/>
  <path class="cls-1" d="m121.23,139.31c1.09-13.21,10.72-26.79,22.79-31.11,9.65-3.45,18.17.47,21.84,10.6,1.5,4.15,2.04,8.69,2.64,13.11.2,1.44-.41,3.34-1.31,4.53-3.89,5.17-7.95,10.21-12.09,15.19-1.58,1.9-3.38,3.68-5.3,5.24-7.97,6.5-18.3,5.09-23.57-3.78-2.45-4.13-3.38-9.16-5-13.78Z"/>
  <path class="cls-1" d="m176.33,199.22c-2.7-4.7-7.47-7.82-13.49-9.66-1.88-.58-4.26-3.41-4.25-5.2.01-1.79,2.43-4.47,4.34-5.11,3.19-1.07,6.87-1.31,10.27-1.01,5.93.52,11.85,1.52,17.68,2.75,2.14.45,4.36,1.78,5.94,3.33,3.07,2.99,1.88,7.22-2.19,8.65-5.81,2.04-11.65,3.99-18.3,6.26Z"/>
  <path class="cls-1" d="m192.31,215.04c-2.97,6.96-9.78,9.64-19.53,7.84-8.03-1.48-13.02-6.11-13.22-12.21,10.77,1.44,21.55,2.88,32.75,4.37Z"/>
</svg>