<?xml version="1.0" encoding="UTF-8"?>
<svg id="Calque_1" data-name="Calque 1" xmlns="http://www.w3.org/2000/svg" viewBox="0 0 221.35 204.63">
  <defs>
    <style>
      .cls-1 {
        fill: #fff;
      }

      .cls-2 {
        fill: #d8d8d8;
      }

      .cls-3 {
        fill: #b2b2b2;
      }

      .cls-4 {
        fill: #a8a8a8;
      }

      .cls-5 {
        fill: #6cb0a1;
      }
    </style>
  </defs>
  <circle class="cls-1" cx="103.32" cy="102.31" r="102.31"/>
  <path class="cls-3" d="m97.95,61.65c1.57,5.28,2.92,10.61,4.31,15.93,1.25,4.77,2.62,9.52,3.92,14.28,1.13,4.15,2.11,8.34,3.37,12.44.83,2.69,1.26,5.5,2.36,8.29.81-2.23,1.18-4.4,1.76-6.52,1.63-5.97,3.28-11.94,4.91-17.92,2.78-10.19,5.56-20.37,8.31-30.57.19-.72.51-.95,1.23-.94,9.75.02,19.49.02,29.24,0,.73,0,1.04.25,1.22.96,2.4,9.31,4.85,18.61,7.26,27.92,1.22,4.74,2.35,9.5,3.58,14.24,1.19,4.57,2.47,9.12,3.74,13.81.68-1.07.83-2.24,1.14-3.33,2.61-8.96,5.17-17.93,7.74-26.9,2.41-8.41,4.84-16.81,7.21-25.23.31-1.09.74-1.62,1.95-1.48,1.02.12,2.07,0,3.11,0,.14.05.28.1.42.15.06,1.08.81,1.87,1.25,2.78,2.54,5.26,4.78,10.63,6.42,16.24,2.16,7.36,3.59,14.83,3.87,22.51.05,1.33.26,2.66.4,3.99-.07.41-.14.82-.21,1.22-.26.21-.35.51-.45.82-1.23,3.72-2.5,7.43-3.69,11.17-1.59,4.98-3.33,9.91-4.89,14.9-2.56,8.16-5.32,16.25-7.98,24.39-.23.69-.57.92-1.29.88-2.29-.11-4.58.04-6.87.02-8.19-.07-16.37-.08-24.56.02-1.43.02-1.88-.5-2.24-1.73-2.49-8.37-5.05-16.72-7.57-25.08-1.66-5.5-3.3-11-4.96-16.5-.78-2.57-1.6-5.13-2.47-7.92-1.77,5.51-3.45,10.77-5.15,16.03-.86,2.64-1.75,5.27-2.63,7.9-6.7,0-13.4-.03-20.1-.02-9.77,0-19.54.02-29.31.03-.09-.03-.18-.05-.27-.08.09-.46-.16-.85-.29-1.26-.83-2.56-1.69-5.1-2.53-7.65-2.33-7.1-4.66-14.21-6.99-21.31.01-.11.02-.22.03-.33,1.79-2.48,3.6-4.95,5.37-7.43,4.29-6.02,8.58-12.04,12.85-18.07,2.5-3.54,4.97-7.09,7.46-10.64Z"/>
  <path class="cls-4" d="m90.99,155.63c-2.33.02-4.66.05-6.99.05-11.7,0-23.4,0-35.1,0-10.83,0-21.67,0-32.5,0-.48,0-.96.02-1.44.04-4.58-.01-9.16-.06-13.74-.01-.97,0-1.08-.31-1.17-1.19-.3-2.83.47-5.21,2.27-7.45,1.76-2.18,3.19-4.63,4.77-6.96,4.07-5.89,8.14-11.79,12.21-17.69,6.61-9.6,13.23-19.19,19.82-28.8,2.66-3.87,5.27-7.77,7.9-11.66-2.04-.36-4.08-.21-6.12-.07-.52,0-1.03,0-1.55,0-.31-.04-.62-.11-.94-.11-11.4,0-22.81,0-34.21,0-.31,0-.62.07-.93.11-.17-.02-.34-.04-.51-.07l-.06-.09c.02-.07.04-.14.05-.22.03-.02.08-.05.07-.07,0-.06-.03-.12-.05-.18,0-7.77.01-15.54-.02-23.32,0-.93.24-1.22,1.19-1.21,2.79.03,5.59-.05,8.38-.08.18.03.36.05.53.08.44.18.89.18,1.33,0,.13-.03.26-.06.39-.09,0,0,.05,0,.05,0,.13.03.26.06.39.09.36.17.73.17,1.09,0,.13-.03.26-.06.39-.09,0,0,.04,0,.04,0,1.01.03,2.02.06,3.04.09.37.21.78.11,1.17.11,3.86,0,7.72.02,11.58,0,.99,0,1.98.15,2.96-.1.6,0,1.19,0,1.79,0,2.6.19,5.2.18,7.8,0,.52,0,1.04,0,1.55,0,1.64.18,3.28.2,4.92-.02,2.49,0,4.98-.02,7.48-.03,0,.06.02.13.03.19.55,1.78,1.08,3.57,1.66,5.35,2.64,8.09,5.28,16.18,7.94,24.26,1.24,3.77,2.53,7.53,3.8,11.3-.01.11-.02.22-.03.33-1.54,1.79-2.78,3.8-4.15,5.71-4.67,6.51-9.34,13.01-13.98,19.53-1.13,1.59-2.42,3.09-3.26,4.98h31.21c.09.03.18.05.27.08.67,2.43,1.27,4.88,2.17,7.24.96,2.51,1.64,5.11,2.48,7.66,1.34,4.1,2.93,8.12,4.03,12.3Z"/>
  <path class="cls-1" d="m47.03,81.97c-2.63,3.89-5.24,7.79-7.9,11.66-6.6,9.61-13.21,19.2-19.82,28.8-4.06,5.9-8.14,11.79-12.21,17.69-1.71-4.06-2.98-8.26-4.06-12.51-1.16-4.57-1.89-9.21-2.47-13.87C0,109.17,0,104.59.14,100.03c.19-5.81.99-11.57,2.31-17.24.06-.27.05-.55.08-.83.08-.04.16-.08.24-.12.17.02.34.04.51.07.28.02.55.06.83.06,11.47,0,22.95,0,34.42,0,.28,0,.55-.04.83-.07.52,0,1.03,0,1.55,0,2.04.02,4.08.05,6.12.07Z"/>
  <path class="cls-2" d="m206.68,102.31c-.14-1.33-.35-2.66-.4-3.99-.28-7.68-1.71-15.16-3.87-22.51-1.65-5.61-3.88-10.99-6.42-16.24-.44-.91-1.18-1.7-1.25-2.78,8.02-.22,16.03-.06,24.05-.1,2.94-.02,2.93,0,2.03,2.72-4.61,14-9.21,28.01-13.82,42.01-.1.3-.21.6-.32.9Z"/>
  <path class="cls-5" d="m2.78,81.27c.02.06.05.12.05.18,0,.02-.05.05-.07.07,0-.08.01-.17.02-.25Z"/>
  <path class="cls-5" d="m2.76,81.83c-.08.04-.16.08-.24.12.06-.07.12-.14.18-.21,0,0,.06.09.06.09Z"/>
  <path class="cls-2" d="m72.26,97.8c-1.27-3.77-2.56-7.52-3.8-11.3-2.66-8.08-5.3-16.17-7.94-24.26-.58-1.77-1.11-3.56-1.66-5.35,12.6,0,25.21,0,37.81,0,.43,1.59.86,3.17,1.28,4.76-2.49,3.55-4.96,7.11-7.46,10.64-4.27,6.03-8.56,12.06-12.85,18.07-1.78,2.49-3.58,4.96-5.37,7.43Z"/>
  <path class="cls-5" d="m35.28,56.75c-.98.25-1.98.1-2.96.1-3.86.02-7.72.01-11.58,0-.39,0-.8.1-1.17-.11,5.24-.11,10.47-.11,15.71,0Z"/>
  <path class="cls-5" d="m14.19,56.75c-.45.17-.89.18-1.33,0,.45-.1.89-.1,1.33,0Z"/>
  <path class="cls-5" d="m16.11,56.75c-.36.17-.73.17-1.09,0,.36-.1.73-.1,1.09,0Z"/>
  <path class="cls-5" d="m14.63,56.66s-.05,0-.05,0c.02-.15.03-.14.05,0Z"/>
  <path class="cls-5" d="m16.54,56.66s-.04,0-.04,0c.01-.15.02-.14.04,0Z"/>
  <path class="cls-2" d="m90.99,155.63c-1.1-4.18-2.69-8.2-4.03-12.3-.83-2.55-1.52-5.15-2.48-7.66-.9-2.36-1.5-4.81-2.17-7.24,9.77,0,19.54-.02,29.31-.03,6.7,0,13.4.02,20.1.02-1.66,4.98-3.32,9.96-4.97,14.94-.04.11-.04.23-.06.35-.31.52-.46,1.09-.46,1.69,0,0,0,0,0,0-1.37,3.33-2.44,6.77-3.43,10.23-2.15.02-4.3.04-6.45.04-8.25,0-16.51,0-24.76,0-.2,0-.4-.03-.59-.05Z"/>
  <path class="cls-1" d="m82.04,128.35h-31.21c.84-1.88,2.13-3.38,3.26-4.98,4.64-6.52,9.31-13.02,13.98-19.53,1.37-1.91,2.61-3.92,4.15-5.71,2.33,7.1,4.66,14.21,6.99,21.31.84,2.55,1.7,5.1,2.53,7.65.13.4.39.79.29,1.26Z"/>
  <path class="cls-5" d="m39.36,81.9c-.28.02-.55.07-.83.07-11.47,0-22.95,0-34.42,0-.28,0-.55-.04-.83-.06.31-.04.62-.11.94-.11,11.4,0,22.81,0,34.21,0,.31,0,.62.07.94.11Z"/>
  <path class="cls-5" d="m47.03,81.97c-2.04-.02-4.08-.05-6.12-.07,2.04-.14,4.08-.29,6.12.07Z"/>
</svg>