<?xml version="1.0" encoding="UTF-8"?>
<svg id="publicdomainvectors.org" xmlns="http://www.w3.org/2000/svg" viewBox="0 0 434.53 433.32">
  <defs>
    <style>
      .cls-1 {
        fill: #e5e4eb;
      }

      .cls-2, .cls-3 {
        fill: #a09ea5;
      }

      .cls-4 {
        fill: #ceccd4;
      }

      .cls-3, .cls-5 {
        fill-rule: evenodd;
      }

      .cls-5 {
        fill: #848389;
      }
    </style>
  </defs>
  <g>
    <path class="cls-2" d="m355.96,55.43c42.89,39,69.88,95.19,69.88,157.5,0,117.27-95.65,212.92-212.92,212.92-50.86,0-97.65-18-134.34-47.94,37.84,34.4,88.06,55.42,143.03,55.42,117.27,0,212.92-95.65,212.92-212.92,0-66.41-30.68-125.87-78.58-164.97Z"/>
    <path class="cls-4" d="m8.69,220.4C8.69,103.12,104.34,7.48,221.61,7.48c50.87,0,97.66,18,134.35,47.95C318.11,21.02,267.89,0,212.92,0,95.65,0,0,95.65,0,212.92c0,66.41,30.68,125.88,78.58,164.98C35.69,338.9,8.69,282.7,8.69,220.4Z"/>
    <path class="cls-4" d="m425.84,212.92c0-62.3-26.99-118.5-69.88-157.5C319.27,25.48,272.48,7.48,221.61,7.48,104.34,7.48,8.69,103.12,8.69,220.4c0,62.3,27,118.5,69.89,157.5,36.69,29.94,83.47,47.94,134.34,47.94,117.27,0,212.92-95.65,212.92-212.92Zm-368.3,0c0-85.58,69.8-155.38,155.38-155.38s155.38,69.8,155.38,155.38-69.8,155.38-155.38,155.38S57.54,298.5,57.54,212.92Z"/>
  </g>
  <g>
    <path class="cls-1" d="m339.91,123.57l43.18-38.64c-19.19-25.48-43.98-46.51-72.53-61.27l-47.25,42.29c31.18,10.74,57.91,31.15,76.61,57.62Z"/>
    <path class="cls-1" d="m368.3,212.92c0,.96-.02,1.92-.04,2.88l52.91-47.35c-3.58-16.81-9.12-32.89-16.4-47.98l-45.4,40.63c5.77,16.22,8.92,33.67,8.92,51.83Z"/>
    <path class="cls-1" d="m145.24,352.73l-45.39,40.62c14.23,8.94,29.6,16.24,45.83,21.64l52.93-47.37c-18.97-1.75-36.97-6.92-53.36-14.9Z"/>
    <path class="cls-1" d="m61.28,246.76l-47.25,42.28c11.56,30.18,29.79,57.07,52.89,78.84l43.18-38.65c-24.11-21.34-41.57-50.02-48.83-82.48Z"/>
  </g>
  <g>
    <path class="cls-5" d="m212.92,44.12c8.12,0,14.75-6.62,14.75-14.75s-6.62-14.75-14.75-14.75-14.75,6.62-14.75,14.75,6.63,14.75,14.75,14.75Z"/>
    <path class="cls-3" d="m212.92,30.24c4.79,0,8.69-3.24,8.69-7.22s-3.9-7.22-8.69-7.22-8.69,3.24-8.69,7.22,3.91,7.22,8.69,7.22Z"/>
  </g>
  <g>
    <path class="cls-5" d="m212.92,411.22c8.12,0,14.75-6.62,14.75-14.75s-6.62-14.75-14.75-14.75-14.75,6.62-14.75,14.75,6.63,14.75,14.75,14.75Z"/>
    <path class="cls-3" d="m212.92,397.34c4.79,0,8.69-3.25,8.69-7.22s-3.9-7.22-8.69-7.22-8.69,3.24-8.69,7.22,3.91,7.22,8.69,7.22Z"/>
  </g>
  <g>
    <path class="cls-5" d="m27.01,227.67c8.12,0,14.75-6.62,14.75-14.75s-6.62-14.75-14.75-14.75-14.75,6.62-14.75,14.75,6.62,14.75,14.75,14.75Z"/>
    <path class="cls-3" d="m27.01,213.79c4.79,0,8.69-3.25,8.69-7.22s-3.9-7.22-8.69-7.22-8.69,3.25-8.69,7.22,3.91,7.22,8.69,7.22Z"/>
  </g>
  <g>
    <path class="cls-5" d="m398.83,227.67c8.12,0,14.75-6.62,14.75-14.75s-6.63-14.75-14.75-14.75-14.75,6.62-14.75,14.75,6.62,14.75,14.75,14.75Z"/>
    <path class="cls-3" d="m398.83,213.79c4.79,0,8.69-3.25,8.69-7.22s-3.91-7.22-8.69-7.22-8.69,3.25-8.69,7.22,3.9,7.22,8.69,7.22Z"/>
  </g>
  <g>
    <path class="cls-5" d="m80.09,101.07c8.12,0,14.75-6.62,14.75-14.75s-6.62-14.75-14.75-14.75-14.75,6.62-14.75,14.75,6.62,14.75,14.75,14.75Z"/>
    <path class="cls-3" d="m80.09,87.19c4.79,0,8.69-3.24,8.69-7.22s-3.91-7.22-8.69-7.22-8.69,3.24-8.69,7.22,3.91,7.22,8.69,7.22Z"/>
  </g>
  <g>
    <path class="cls-5" d="m80.09,354.87c8.12,0,14.75-6.62,14.75-14.75s-6.62-14.75-14.75-14.75-14.75,6.62-14.75,14.75,6.62,14.75,14.75,14.75Z"/>
    <path class="cls-3" d="m80.09,340.99c4.79,0,8.69-3.25,8.69-7.22s-3.91-7.22-8.69-7.22-8.69,3.25-8.69,7.22,3.91,7.22,8.69,7.22Z"/>
  </g>
  <g>
    <path class="cls-5" d="m351.45,101.07c8.12,0,14.75-6.62,14.75-14.75s-6.62-14.75-14.75-14.75-14.75,6.62-14.75,14.75,6.62,14.75,14.75,14.75Z"/>
    <path class="cls-3" d="m351.45,87.19c4.79,0,8.69-3.24,8.69-7.22s-3.91-7.22-8.69-7.22-8.69,3.24-8.69,7.22,3.9,7.22,8.69,7.22Z"/>
  </g>
  <g>
    <path class="cls-5" d="m351.45,354.87c8.12,0,14.75-6.62,14.75-14.75s-6.62-14.75-14.75-14.75-14.75,6.62-14.75,14.75,6.62,14.75,14.75,14.75Z"/>
    <path class="cls-3" d="m351.45,340.99c4.79,0,8.69-3.25,8.69-7.22s-3.91-7.22-8.69-7.22-8.69,3.25-8.69,7.22,3.9,7.22,8.69,7.22Z"/>
  </g>
</svg>