<?xml version="1.0" encoding="utf-8"?>
<!-- Generator: Adobe Illustrator 27.0.1, SVG Export Plug-In . SVG Version: 6.00 Build 0)  -->
<svg version="1.1" id="Calque_1" xmlns="http://www.w3.org/2000/svg" xmlns:xlink="http://www.w3.org/1999/xlink" x="0px" y="0px"
	 viewBox="0 0 100 100" style="enable-background:new 0 0 100 100;" xml:space="preserve">
<style type="text/css">
	.st0{fill:#FFFFFF;}
</style>
<path class="st0" d="M33.3,10C20.5,10,10,20.5,10,33.3v33.3C10,79.5,20.5,90,33.3,90h33.3C79.5,90,90,79.5,90,66.7V33.3
	C90,20.5,79.5,10,66.7,10H33.3z M73.3,23.3c1.8,0,3.3,1.5,3.3,3.3S75.2,30,73.3,30c-1.8,0-3.3-1.5-3.3-3.3S71.5,23.3,73.3,23.3z
	 M50,30c11,0,20,9,20,20s-9,20-20,20s-20-9-20-20S39,30,50,30z M50,36.7c-7.4,0-13.3,6-13.3,13.3s6,13.3,13.3,13.3s13.3-6,13.3-13.3
	S57.4,36.7,50,36.7z"/>
</svg>
