<svg xmlns="http://www.w3.org/2000/svg" width="25" height="22" fill="none" viewBox="0 0 25 22">
  <path fill="#5478AF" d="M17.631 22c-2.366 0-4.734-.9-6.536-2.701a5.723 5.723 0 0 0-8.085 0 1.76 1.76 0 0 1-2.493 0 1.761 1.761 0 0 1 0-2.493c3.602-3.602 9.466-3.602 13.071 0a5.726 5.726 0 0 0 8.086 0c.69-.69 1.803-.69 2.493 0s.69 1.804 0 2.493A9.215 9.215 0 0 1 17.63 22Zm0-7.052a9.223 9.223 0 0 1-6.536-2.701 5.723 5.723 0 0 0-8.085 0 1.76 1.76 0 0 1-2.493 0 1.761 1.761 0 0 1 0-2.493c3.602-3.602 9.466-3.602 13.071 0a5.727 5.727 0 0 0 8.086 0c.69-.69 1.803-.69 2.493 0s.69 1.803 0 2.493a9.215 9.215 0 0 1-6.536 2.7Zm0-7.053c-2.366 0-4.734-.9-6.536-2.7a5.723 5.723 0 0 0-8.085 0 1.762 1.762 0 0 1-2.493 0 1.761 1.761 0 0 1 0-2.494c3.602-3.6 9.466-3.603 13.071 0a5.726 5.726 0 0 0 8.086 0 1.762 1.762 0 0 1 2.493 0c.69.69.69 1.804 0 2.493a9.215 9.215 0 0 1-6.536 2.701Z"/>
</svg>
