<?xml version="1.0" encoding="utf-8"?>
<!-- Generator: Adobe Illustrator 27.2.0, SVG Export Plug-In . SVG Version: 6.00 Build 0)  -->
<svg version="1.1" id="Calque_1" xmlns="http://www.w3.org/2000/svg" xmlns:xlink="http://www.w3.org/1999/xlink" x="0px" y="0px"
	 viewBox="0 0 1440 2140.7" style="enable-background:new 0 0 1440 2140.7;" xml:space="preserve">
<style type="text/css">
	.st0{fill:#49648E;}
</style>
<path class="st0" d="M0,46.2l30-8.3c30-8.9,90-24.5,150-33.4c60-8.3,120-8.3,180,24.9c60,33.8,120,99.3,180,99.8
	c60-0.5,120-65.9,180-49.9c60,16.7,120,116.4,180,141.4s120-24.9,180-83.1c60-58.8,120-124.2,180-124.7c60,0.5,120,65.9,150,99.8
	l30,33.2v1994.8h-30c-30,0-90,0-150,0s-120,0-180,0s-120,0-180,0s-120,0-180,0s-120,0-180,0s-120,0-180,0s-120,0-180,0s-120,0-150,0
	H0V46.2z"/>
</svg>
