<?xml version="1.0" encoding="utf-8"?>
<!-- Generator: Adobe Illustrator 27.2.0, SVG Export Plug-In . SVG Version: 6.00 Build 0)  -->
<svg version="1.1" id="Calque_1" xmlns="http://www.w3.org/2000/svg" xmlns:xlink="http://www.w3.org/1999/xlink" x="0px" y="0px"
	 viewBox="0 0 3451.1 2140.7" style="enable-background:new 0 0 3451.1 2140.7;" xml:space="preserve">
<style type="text/css">
	.st0{fill:#49648E;}
</style>
<path class="st0" d="M3432,112.8c-19.1-33.8-57.4-99.3-95.7-99.8c-38.3,0.5-76.5,65.9-114.8,124.7c-38.3,58.1-76.5,108-114.8,83.1
	s-76.5-124.7-114.8-141.4c-38.3-16.1-76.5,49.4-114.8,49.9c-38.3-0.5-76.5-65.9-114.8-99.8C2724-3.7,2685.8-3.7,2647.5,4.6
	c-38.3,8.9-76.5,24.5-95.7,33.4l-19.1,8.3l-22.8-8.3c-22.8-8.9-68.3-24.5-113.8-33.4c-45.5-8.3-91.1-8.3-136.6,24.9
	c-45.5,33.8-91.1,99.3-136.6,99.8c-45.5-0.5-91.1-65.9-136.6-49.9c-45.5,16.7-91.1,116.4-136.6,141.4
	c-45.5,24.9-91.1-24.9-136.6-83.1c-45.5-58.8-91.1-124.2-136.6-124.7c-45.5,0.5-91.1,65.9-113.8,99.8l-22.8,33.2l-30-33.2
	c-30-33.8-90-99.3-150-99.8c-60,0.5-120,65.9-180,124.7c-60,58.1-120,108-180,83.1S780,96.1,720,79.4c-60-16.1-120,49.4-180,49.9
	c-60-0.5-120-65.9-180-99.8C300-3.7,240-3.7,180,4.6C120,13.5,60,29.1,30,37.9L0,46.2v2094.5h30c30,0,90,0,150,0s120,0,180,0
	s120,0,180,0s120,0,180,0s120,0,180,0s120,0,180,0s120,0,180,0s120,0,150,0h30h22.8c22.8,0,68.3,0,113.8,0c45.5,0,91.1,0,136.6,0
	c45.5,0,91.1,0,136.6,0c45.5,0,91.1,0,136.6,0c45.5,0,91.1,0,136.6,0c45.5,0,91.1,0,136.6,0c45.5,0,91.1,0,136.6,0
	c45.5,0,91.1,0,113.8,0h22.8h19.1c19.1,0,57.4,0,95.7,0c38.3,0,76.5,0,114.8,0s76.5,0,114.8,0c38.3,0,76.5,0,114.8,0
	c38.3,0,76.5,0,114.8,0s76.5,0,114.8,0c38.3,0,76.5,0,114.8,0c38.3,0,76.5,0,95.7,0h19.1V145.9L3432,112.8z"/>
</svg>
